<svg xmlns="http://www.w3.org/2000/svg" xmlns:xlink="http://www.w3.org/1999/xlink" width="1366" zoomAndPan="magnify" viewBox="0 0 1024.5 576" height="768" preserveAspectRatio="xMidYMid meet" version="1.0"><defs><g/><clipPath id="76ab8b428e"><path d="M 0 0.140625 L 1024 0.140625 L 1024 575.859375 L 0 575.859375 Z M 0 0.140625 " clip-rule="nonzero"/></clipPath><clipPath id="b25db2a885"><path d="M 512 196.402344 L 1024 196.402344 L 1024 575.714844 L 512 575.714844 Z M 512 196.402344 " clip-rule="nonzero"/></clipPath><clipPath id="8195634836"><path d="M 512 393 L 1024 393 L 1024 488 L 512 488 Z M 512 393 " clip-rule="nonzero"/></clipPath><clipPath id="5e8b85f73a"><path d="M 512 196.402344 L 1024 196.402344 L 1024 510 L 512 510 Z M 512 196.402344 " clip-rule="nonzero"/></clipPath><clipPath id="e41d624240"><path d="M 519 220 L 1024 220 L 1024 553 L 519 553 Z M 519 220 " clip-rule="nonzero"/></clipPath><clipPath id="1dadb8f37d"><path d="M 512 205 L 1024 205 L 1024 575.714844 L 512 575.714844 Z M 512 205 " clip-rule="nonzero"/></clipPath></defs><g clip-path="url(#76ab8b428e)"><path fill="#ffffff" d="M 0 0.140625 L 1024 0.140625 L 1024 575.859375 L 0 575.859375 Z M 0 0.140625 " fill-opacity="1" fill-rule="nonzero"/><path fill="#ffffff" d="M 0 0.140625 L 1024 0.140625 L 1024 575.859375 L 0 575.859375 Z M 0 0.140625 " fill-opacity="1" fill-rule="nonzero"/></g><g clip-path="url(#b25db2a885)"><path fill="#000000" d="M 1216.972656 393.324219 L 1216.9375 393.324219 L 1217.109375 258.71875 C 1217.109375 232.113281 1195.542969 210.546875 1168.9375 210.546875 L 866.269531 210.546875 L 866.257812 210.558594 C 856.574219 201.75 843.71875 196.402344 829.609375 196.402344 L 673.871094 196.402344 C 643.726562 196.402344 619.296875 220.832031 619.296875 250.976562 L 619.296875 284.636719 L 617.417969 284.636719 C 613.835938 284.636719 610.839844 287.050781 609.882812 290.328125 L 606.386719 290.328125 C 603.160156 290.328125 600.542969 292.945312 600.542969 296.171875 L 600.542969 332.609375 C 600.542969 335.835938 603.160156 338.453125 606.386719 338.453125 L 609.882812 338.453125 C 610.84375 341.730469 613.839844 344.144531 617.417969 344.144531 L 619.296875 344.144531 L 619.296875 349.03125 C 618.589844 349.03125 618.019531 349.601562 618.019531 350.304688 L 602.589844 350.304688 C 578.476562 350.304688 558.933594 369.847656 558.933594 393.960938 L 558.933594 408.546875 C 558.230469 408.546875 557.660156 409.113281 557.660156 409.820312 L 557.660156 409.871094 C 537.539062 410.414062 520.597656 423.714844 514.699219 442.007812 C 513.25 446.507812 512.464844 451.304688 512.464844 456.277344 L 512.464844 507.261719 C 512.464844 516.488281 519.949219 523.972656 529.175781 523.972656 L 552.132812 523.972656 C 555.78125 550.871094 569.300781 570.347656 587.625 574.832031 C 590.265625 575.46875 593.003906 575.800781 595.828125 575.800781 L 614.851562 575.800781 C 616.761719 575.800781 618.640625 575.652344 620.464844 575.34375 C 640.101562 572.144531 654.726562 552.121094 658.546875 523.972656 L 763.988281 523.972656 C 767.636719 550.871094 781.160156 570.347656 799.484375 574.832031 C 802.121094 575.46875 804.863281 575.800781 807.683594 575.800781 L 826.710938 575.800781 C 828.621094 575.800781 830.5 575.652344 832.324219 575.34375 C 845.46875 573.203125 856.367188 563.511719 863.285156 548.90625 C 869.746094 562.546875 879.671875 571.898438 891.65625 574.832031 C 894.292969 575.46875 897.035156 575.800781 899.859375 575.800781 L 918.886719 575.800781 C 920.792969 575.800781 922.671875 575.652344 924.496094 575.34375 C 945.308594 571.953125 960.5 549.675781 963.15625 518.84375 L 1067.453125 518.84375 C 1069.996094 548.375 1084.046875 570.066406 1103.519531 574.828125 C 1106.15625 575.464844 1108.894531 575.800781 1111.71875 575.800781 L 1130.746094 575.800781 C 1132.652344 575.800781 1134.53125 575.652344 1136.355469 575.34375 C 1157.167969 571.953125 1172.359375 549.671875 1175.015625 518.84375 L 1199.671875 518.84375 C 1209.164062 518.84375 1216.859375 511.148438 1216.859375 501.65625 L 1216.859375 487.257812 L 1216.980469 487.257812 C 1222.109375 487.257812 1226.265625 483.101562 1226.265625 477.976562 L 1226.265625 402.609375 C 1226.257812 397.480469 1222.101562 393.324219 1216.972656 393.324219 Z M 1216.972656 393.324219 " fill-opacity="1" fill-rule="nonzero"/></g><g clip-path="url(#8195634836)"><path fill="#fe6539" d="M 1226.257812 402.609375 L 1226.257812 477.976562 C 1226.257812 483.101562 1222.101562 487.257812 1216.972656 487.257812 L 1216.851562 487.257812 L 1216.851562 459.800781 L 1216.9375 393.324219 L 1216.972656 393.324219 C 1222.101562 393.324219 1226.257812 397.480469 1226.257812 402.609375 Z M 788.144531 464.945312 C 791.742188 464.945312 794.671875 462.019531 794.671875 458.417969 L 794.671875 448.535156 C 794.671875 444.9375 791.742188 442.011719 788.144531 442.011719 L 765.757812 442.011719 L 765.757812 464.945312 Z M 519.234375 442.011719 L 514.699219 442.011719 C 513.25 446.507812 512.464844 451.304688 512.464844 456.277344 L 512.464844 464.945312 L 519.234375 464.945312 Z M 519.234375 442.011719 " fill-opacity="1" fill-rule="nonzero"/></g><g clip-path="url(#5e8b85f73a)"><path fill="#f8cb2e" d="M 802.402344 477.5 C 806.589844 454.339844 814.957031 430.117188 831.675781 424.636719 C 852.898438 417.683594 876.65625 439.082031 874.375 504.214844 L 899 504.214844 C 897.042969 501.628906 895.863281 498.417969 895.863281 494.929688 L 895.863281 467.625 C 895.863281 459.121094 902.78125 452.203125 911.285156 452.203125 L 931.984375 452.203125 C 940.488281 452.203125 947.40625 459.121094 947.40625 467.625 L 947.40625 494.929688 C 947.40625 498.417969 946.226562 501.628906 944.269531 504.214844 L 1091.253906 504.214844 L 1104.089844 452.042969 C 1106.4375 442.496094 1114.992188 435.792969 1124.816406 435.792969 L 1141.730469 435.792969 C 1151.269531 435.792969 1159.648438 442.113281 1162.261719 451.285156 L 1177.355469 504.214844 L 1199.113281 505.003906 C 1208.914062 504.925781 1216.816406 496.960938 1216.816406 487.160156 L 1216.851562 459.804688 L 1216.9375 393.324219 L 1217.109375 258.71875 C 1217.109375 232.117188 1195.539062 210.546875 1168.9375 210.546875 L 866.269531 210.546875 L 866.257812 210.558594 C 856.574219 201.75 843.71875 196.402344 829.609375 196.402344 L 673.871094 196.402344 C 643.726562 196.402344 619.296875 220.832031 619.296875 250.976562 L 619.296875 284.636719 L 617.417969 284.636719 C 613.835938 284.636719 610.839844 287.050781 609.882812 290.328125 L 606.386719 290.328125 C 603.160156 290.328125 600.542969 292.945312 600.542969 296.171875 L 600.542969 332.609375 C 600.542969 335.835938 603.160156 338.453125 606.386719 338.453125 L 609.882812 338.453125 C 610.84375 341.730469 613.839844 344.144531 617.417969 344.144531 L 619.296875 344.144531 L 619.296875 349.03125 L 811.984375 349.03125 C 836.757812 349.03125 856.914062 369.1875 856.914062 393.960938 L 856.914062 411.929688 C 869.851562 417.847656 878.867188 430.902344 878.867188 446.035156 L 878.867188 451.035156 C 878.867188 451.738281 878.296875 452.3125 877.59375 452.3125 C 876.890625 452.3125 876.320312 451.742188 876.320312 451.035156 L 876.320312 446.035156 C 876.320312 426.769531 860.640625 411.089844 841.371094 411.089844 L 796.003906 411.089844 C 777.800781 411.089844 761.457031 421.925781 754.367188 438.691406 C 754.160156 439.175781 753.6875 439.46875 753.191406 439.46875 C 753.027344 439.46875 752.859375 439.4375 752.695312 439.367188 C 752.050781 439.09375 751.746094 438.347656 752.019531 437.699219 C 759.511719 419.984375 776.777344 408.539062 796.007812 408.539062 L 841.375 408.539062 C 845.9375 408.539062 850.316406 409.363281 854.363281 410.863281 L 854.363281 393.957031 C 854.363281 370.589844 835.355469 351.578125 811.984375 351.578125 L 619.296875 351.578125 C 618.589844 351.578125 618.019531 351.007812 618.019531 350.304688 L 602.589844 350.304688 C 578.476562 350.304688 558.933594 369.84375 558.933594 393.957031 L 558.933594 408.542969 C 559.636719 408.542969 560.207031 409.113281 560.207031 409.816406 L 560.207031 436.523438 C 560.207031 437.226562 559.636719 437.796875 558.933594 437.796875 C 558.230469 437.796875 557.660156 437.226562 557.660156 436.523438 L 557.660156 409.871094 C 537.535156 410.414062 520.59375 423.714844 514.699219 442.007812 L 559.90625 442.007812 C 563.511719 442.007812 566.429688 444.9375 566.429688 448.535156 L 566.429688 458.417969 C 566.429688 462.019531 563.511719 464.945312 559.90625 464.945312 L 512.464844 464.945312 L 512.464844 477.5 Z M 906.125 338.453125 L 909.699219 338.453125 C 908.875 340.15625 907.148438 341.339844 905.136719 341.339844 L 895.417969 341.339844 C 895.308594 341.339844 895.207031 341.316406 895.097656 341.308594 L 895.097656 287.472656 C 895.203125 287.464844 895.308594 287.441406 895.417969 287.441406 L 905.136719 287.441406 C 907.148438 287.441406 908.878906 288.625 909.699219 290.328125 L 906.125 290.328125 C 902.894531 290.328125 900.277344 292.945312 900.277344 296.171875 L 900.277344 332.609375 C 900.277344 335.835938 902.894531 338.453125 906.125 338.453125 Z M 902.324219 410.976562 L 1202.78125 410.976562 C 1205.644531 410.976562 1207.964844 413.296875 1207.964844 416.160156 C 1207.964844 419.023438 1205.644531 421.34375 1202.78125 421.34375 L 902.324219 421.34375 C 899.460938 421.34375 897.140625 419.023438 897.140625 416.160156 C 897.140625 413.296875 899.460938 410.976562 902.324219 410.976562 Z M 1086.269531 491.929688 L 954.425781 491.929688 C 953.71875 491.929688 953.148438 491.359375 953.148438 490.65625 C 953.148438 489.953125 953.71875 489.382812 954.425781 489.382812 L 1086.269531 489.382812 C 1086.972656 489.382812 1087.542969 489.953125 1087.542969 490.65625 C 1087.542969 491.359375 1086.972656 491.929688 1086.269531 491.929688 Z M 1164.671875 430.433594 L 1107.292969 430.433594 C 1098.027344 430.433594 1090.015625 436.714844 1087.800781 445.710938 L 1078.589844 483.144531 C 1078.449219 483.726562 1077.925781 484.113281 1077.355469 484.113281 C 1077.253906 484.113281 1077.152344 484.105469 1077.050781 484.078125 C 1076.367188 483.910156 1075.949219 483.21875 1076.117188 482.535156 L 1085.328125 445.101562 C 1087.820312 434.964844 1096.851562 427.882812 1107.292969 427.882812 L 1164.671875 427.882812 C 1165.375 427.882812 1165.945312 428.453125 1165.945312 429.15625 C 1165.945312 429.863281 1165.375 430.433594 1164.671875 430.433594 Z M 1171.257812 461.09375 C 1170.550781 461.09375 1169.980469 460.523438 1169.980469 459.820312 C 1169.980469 459.113281 1170.550781 458.546875 1171.257812 458.546875 L 1209.550781 458.546875 C 1210.253906 458.546875 1210.824219 459.113281 1210.824219 459.820312 C 1210.824219 460.523438 1210.253906 461.09375 1209.550781 461.09375 Z M 1207.964844 371.996094 C 1207.964844 374.859375 1205.644531 377.179688 1202.78125 377.179688 L 902.324219 377.179688 C 899.460938 377.179688 897.140625 374.859375 897.140625 371.996094 C 897.140625 369.132812 899.460938 366.8125 902.324219 366.8125 L 1202.78125 366.8125 C 1205.644531 366.8125 1207.964844 369.132812 1207.964844 371.996094 Z M 940.339844 336.601562 L 940.339844 272.828125 C 940.339844 266.535156 945.441406 261.433594 951.730469 261.433594 L 965.59375 261.433594 C 971.886719 261.433594 976.984375 266.535156 976.984375 272.828125 L 976.984375 336.601562 C 976.984375 342.894531 971.886719 347.992188 965.59375 347.992188 L 951.730469 347.992188 C 945.441406 347.992188 940.339844 342.890625 940.339844 336.601562 Z M 985.585938 336.601562 L 985.585938 272.828125 C 985.585938 266.535156 990.683594 261.433594 996.976562 261.433594 L 1010.835938 261.433594 C 1017.128906 261.433594 1022.226562 266.535156 1022.226562 272.828125 L 1022.226562 336.601562 C 1022.226562 342.894531 1017.128906 347.992188 1010.835938 347.992188 L 996.976562 347.992188 C 990.683594 347.992188 985.585938 342.890625 985.585938 336.601562 Z M 1030.828125 336.601562 L 1030.828125 272.828125 C 1030.828125 266.535156 1035.929688 261.433594 1042.21875 261.433594 L 1056.082031 261.433594 C 1062.375 261.433594 1067.472656 266.535156 1067.472656 272.828125 L 1067.472656 336.601562 C 1067.472656 342.894531 1062.375 347.992188 1056.082031 347.992188 L 1042.21875 347.992188 C 1035.929688 347.992188 1030.828125 342.890625 1030.828125 336.601562 Z M 1076.074219 336.601562 L 1076.074219 272.828125 C 1076.074219 266.535156 1081.175781 261.433594 1087.464844 261.433594 L 1101.328125 261.433594 C 1107.621094 261.433594 1112.71875 266.535156 1112.71875 272.828125 L 1112.71875 336.601562 C 1112.71875 342.894531 1107.621094 347.992188 1101.328125 347.992188 L 1087.464844 347.992188 C 1081.175781 347.992188 1076.074219 342.890625 1076.074219 336.601562 Z M 1121.320312 336.601562 L 1121.320312 272.828125 C 1121.320312 266.535156 1126.421875 261.433594 1132.710938 261.433594 L 1146.574219 261.433594 C 1152.863281 261.433594 1157.964844 266.535156 1157.964844 272.828125 L 1157.964844 336.601562 C 1157.964844 342.894531 1152.863281 347.992188 1146.574219 347.992188 L 1132.710938 347.992188 C 1126.421875 347.992188 1121.320312 342.890625 1121.320312 336.601562 Z M 1203.207031 272.828125 L 1203.207031 336.601562 C 1203.207031 342.894531 1198.109375 347.992188 1191.816406 347.992188 L 1177.957031 347.992188 C 1171.664062 347.992188 1166.566406 342.894531 1166.566406 336.601562 L 1166.566406 272.828125 C 1166.566406 266.535156 1171.664062 261.433594 1177.957031 261.433594 L 1191.816406 261.433594 C 1198.109375 261.4375 1203.207031 266.535156 1203.207031 272.828125 Z M 1163.761719 216.292969 C 1164.113281 215.683594 1164.890625 215.472656 1165.5 215.824219 C 1177.808594 222.90625 1186.496094 234.90625 1189.328125 248.753906 C 1189.46875 249.445312 1189.027344 250.117188 1188.335938 250.257812 C 1188.25 250.277344 1188.164062 250.285156 1188.082031 250.285156 C 1187.488281 250.285156 1186.957031 249.867188 1186.832031 249.265625 C 1184.144531 236.132812 1175.90625 224.746094 1164.230469 218.035156 C 1163.621094 217.683594 1163.410156 216.90625 1163.761719 216.292969 Z M 911.316406 230.253906 L 1165.683594 230.253906 C 1168.546875 230.253906 1170.867188 232.578125 1170.867188 235.441406 C 1170.867188 238.304688 1168.546875 240.625 1165.683594 240.625 L 911.316406 240.625 C 908.453125 240.625 906.132812 238.304688 906.132812 235.441406 C 906.132812 232.578125 908.453125 230.253906 911.316406 230.253906 Z M 906.484375 268.914062 L 920.347656 268.914062 C 926.636719 268.914062 931.738281 274.015625 931.738281 280.308594 L 931.738281 344.082031 C 931.738281 350.375 926.636719 355.472656 920.347656 355.472656 L 906.484375 355.472656 C 900.207031 355.472656 895.113281 350.390625 895.097656 344.113281 C 895.207031 344.117188 895.308594 344.148438 895.417969 344.148438 L 905.136719 344.148438 C 908.71875 344.148438 911.714844 341.734375 912.671875 338.457031 L 916.167969 338.457031 C 919.398438 338.457031 922.015625 335.839844 922.015625 332.609375 L 922.015625 296.171875 C 922.015625 292.945312 919.398438 290.328125 916.167969 290.328125 L 912.671875 290.328125 C 911.714844 287.050781 908.71875 284.636719 905.136719 284.636719 L 895.417969 284.636719 C 895.308594 284.636719 895.203125 284.664062 895.09375 284.667969 L 895.09375 280.308594 C 895.09375 274.015625 900.195312 268.914062 906.484375 268.914062 Z M 829.609375 205.753906 C 840.875 205.753906 851.65625 209.914062 859.96875 217.476562 C 867.777344 224.539062 872.828125 234.097656 874.347656 244.386719 L 813.203125 244.386719 L 813.203125 205.753906 Z M 696.125 224.636719 L 807.347656 224.636719 C 808.050781 224.636719 808.625 225.207031 808.625 225.914062 C 808.625 226.617188 808.050781 227.1875 807.347656 227.1875 L 696.125 227.1875 C 695.421875 227.1875 694.847656 226.617188 694.847656 225.914062 C 694.847656 225.207031 695.421875 224.636719 696.125 224.636719 Z M 694.847656 216.613281 C 694.847656 215.910156 695.421875 215.339844 696.125 215.339844 L 807.347656 215.339844 C 808.050781 215.339844 808.625 215.90625 808.625 216.613281 C 808.625 217.316406 808.050781 217.886719 807.347656 217.886719 L 696.125 217.886719 C 695.421875 217.886719 694.847656 217.316406 694.847656 216.613281 Z M 807.347656 208.589844 L 696.125 208.589844 C 695.421875 208.589844 694.847656 208.019531 694.847656 207.316406 C 694.847656 206.613281 695.421875 206.039062 696.125 206.039062 L 807.347656 206.039062 C 808.050781 206.039062 808.625 206.609375 808.625 207.316406 C 808.621094 208.015625 808.050781 208.589844 807.347656 208.589844 Z M 696.125 233.9375 L 807.347656 233.9375 C 808.050781 233.9375 808.625 234.507812 808.625 235.210938 C 808.625 235.914062 808.050781 236.488281 807.347656 236.488281 L 696.125 236.488281 C 695.421875 236.488281 694.847656 235.917969 694.847656 235.210938 C 694.847656 234.507812 695.421875 233.9375 696.125 233.9375 Z M 696.125 243.238281 L 807.347656 243.238281 C 808.050781 243.238281 808.625 243.804688 808.625 244.511719 C 808.625 245.214844 808.050781 245.785156 807.347656 245.785156 L 696.125 245.785156 C 695.421875 245.785156 694.847656 245.214844 694.847656 244.511719 C 694.847656 243.808594 695.421875 243.238281 696.125 243.238281 Z M 673.871094 205.753906 L 690.269531 205.753906 L 690.269531 244.386719 L 629.121094 244.386719 C 632.320312 222.5625 651.171875 205.753906 673.871094 205.753906 Z M 617.417969 287.441406 L 619.296875 287.441406 L 619.296875 291.105469 C 618.445312 290.625 617.476562 290.328125 616.433594 290.328125 L 612.859375 290.328125 C 613.679688 288.625 615.40625 287.441406 617.417969 287.441406 Z M 617.417969 341.339844 C 615.40625 341.339844 613.679688 340.15625 612.859375 338.453125 L 616.433594 338.453125 C 617.476562 338.453125 618.445312 338.15625 619.296875 337.675781 L 619.296875 341.339844 Z M 851.207031 344.769531 L 636.453125 344.769531 C 629.980469 344.769531 624.746094 339.527344 624.746094 333.066406 L 624.746094 277.820312 C 624.746094 271.347656 629.980469 266.113281 636.453125 266.113281 L 851.207031 266.113281 C 857.675781 266.113281 862.921875 271.347656 862.921875 277.820312 L 862.921875 333.066406 C 862.921875 339.527344 857.675781 344.769531 851.207031 344.769531 Z M 701.492188 466.21875 L 571.734375 466.21875 C 571.03125 466.21875 570.460938 465.648438 570.460938 464.945312 C 570.460938 464.242188 571.03125 463.671875 571.734375 463.671875 L 701.492188 463.671875 C 702.199219 463.671875 702.769531 464.242188 702.769531 464.945312 C 702.769531 465.648438 702.199219 466.21875 701.492188 466.21875 Z M 701.492188 458.289062 L 571.734375 458.289062 C 571.03125 458.289062 570.460938 457.71875 570.460938 457.011719 C 570.460938 456.308594 571.03125 455.738281 571.734375 455.738281 L 701.492188 455.738281 C 702.199219 455.738281 702.769531 456.308594 702.769531 457.011719 C 702.769531 457.71875 702.199219 458.289062 701.492188 458.289062 Z M 788.144531 442.011719 C 791.742188 442.011719 794.671875 444.9375 794.671875 448.535156 L 794.671875 458.417969 C 794.671875 462.019531 791.742188 464.945312 788.144531 464.945312 L 725.085938 464.945312 C 721.488281 464.945312 718.5625 462.019531 718.5625 458.417969 L 718.5625 448.535156 C 718.5625 444.9375 721.488281 442.011719 725.085938 442.011719 Z M 774.46875 370.023438 L 832.988281 360.023438 C 833.683594 359.90625 834.339844 360.371094 834.457031 361.066406 C 834.578125 361.757812 834.109375 362.417969 833.417969 362.535156 L 774.894531 372.535156 C 764.757812 374.269531 757.402344 382.992188 757.402344 393.277344 L 757.402344 416.160156 C 757.402344 416.863281 756.832031 417.433594 756.125 417.433594 C 755.421875 417.433594 754.851562 416.863281 754.851562 416.160156 L 754.851562 393.277344 C 754.855469 381.746094 763.101562 371.96875 774.46875 370.023438 Z M 707.285156 381.714844 L 721.738281 381.714844 C 731.855469 381.714844 740.085938 389.945312 740.085938 400.0625 L 740.085938 402.746094 C 740.085938 403.449219 739.515625 404.019531 738.8125 404.019531 C 738.105469 404.019531 737.535156 403.449219 737.535156 402.746094 L 737.535156 400.0625 C 737.535156 391.351562 730.449219 384.261719 721.738281 384.261719 L 707.285156 384.261719 C 706.582031 384.261719 706.011719 383.695312 706.011719 382.988281 C 706.011719 382.285156 706.582031 381.714844 707.285156 381.714844 Z M 632.746094 378.589844 C 636.316406 372.121094 641.699219 366.960938 648.3125 363.667969 L 664.222656 355.75 C 664.851562 355.4375 665.617188 355.691406 665.929688 356.320312 C 666.246094 356.953125 665.988281 357.71875 665.359375 358.03125 L 649.449219 365.949219 C 643.300781 369.011719 638.296875 373.808594 634.976562 379.820312 C 634.742188 380.242188 634.308594 380.480469 633.859375 380.480469 C 633.652344 380.480469 633.441406 380.429688 633.246094 380.320312 C 632.628906 379.980469 632.402344 379.203125 632.746094 378.589844 Z M 589.21875 382.984375 L 683.605469 382.984375 C 692.222656 382.984375 699.21875 389.980469 699.21875 398.597656 L 699.21875 428.84375 C 699.21875 437.464844 692.222656 444.449219 683.605469 444.449219 L 589.21875 444.449219 C 580.597656 444.449219 573.605469 437.464844 573.605469 428.84375 L 573.605469 398.597656 C 573.605469 389.980469 580.597656 382.984375 589.21875 382.984375 Z M 563.664062 400.0625 L 563.664062 402.746094 C 563.664062 403.449219 563.09375 404.019531 562.386719 404.019531 C 561.683594 404.019531 561.113281 403.449219 561.113281 402.746094 L 561.113281 400.0625 C 561.113281 391.578125 566.859375 384.25 575.089844 382.238281 C 575.78125 382.070312 576.464844 382.488281 576.632812 383.171875 C 576.796875 383.855469 576.378906 384.546875 575.695312 384.710938 C 568.613281 386.445312 563.664062 392.753906 563.664062 400.0625 Z M 940.878906 504.214844 L 902.390625 504.214844 C 899.945312 501.867188 898.410156 498.578125 898.410156 494.929688 L 898.410156 467.625 C 898.410156 460.523438 904.183594 454.75 911.285156 454.75 L 931.984375 454.75 C 939.082031 454.75 944.855469 460.523438 944.855469 467.625 L 944.855469 494.929688 C 944.859375 498.578125 943.324219 501.867188 940.878906 504.214844 Z M 748.144531 499.867188 C 748.144531 494.777344 752.269531 490.65625 757.355469 490.65625 C 762.441406 490.65625 766.566406 494.777344 766.566406 499.867188 C 766.566406 504.953125 762.441406 509.074219 757.355469 509.074219 C 752.269531 509.074219 748.144531 504.953125 748.144531 499.867188 Z M 718.273438 499.867188 C 718.273438 494.777344 722.394531 490.65625 727.480469 490.65625 C 732.566406 490.65625 736.691406 494.777344 736.691406 499.867188 C 736.691406 504.953125 732.566406 509.074219 727.480469 509.074219 C 722.394531 509.074219 718.273438 504.953125 718.273438 499.867188 Z M 536.859375 499.867188 C 536.859375 504.953125 532.734375 509.074219 527.648438 509.074219 C 522.5625 509.074219 518.441406 504.953125 518.441406 499.867188 C 518.441406 494.777344 522.5625 490.65625 527.648438 490.65625 C 532.734375 490.65625 536.859375 494.777344 536.859375 499.867188 Z M 548.3125 499.867188 C 548.3125 494.777344 552.433594 490.65625 557.511719 490.65625 C 562.597656 490.65625 566.722656 494.777344 566.722656 499.867188 C 566.722656 504.953125 562.597656 509.074219 557.511719 509.074219 C 552.4375 509.074219 548.3125 504.953125 548.3125 499.867188 Z M 548.3125 499.867188 " fill-opacity="1" fill-rule="nonzero"/></g><path fill="#cecccd" d="M 687.707031 436.929688 C 687.707031 437.636719 687.136719 438.203125 686.429688 438.203125 L 586.390625 438.203125 C 585.683594 438.203125 585.113281 437.636719 585.113281 436.929688 C 585.113281 436.226562 585.683594 435.65625 586.390625 435.65625 L 686.429688 435.65625 C 687.136719 435.65625 687.707031 436.226562 687.707031 436.929688 Z M 686.433594 424.050781 L 586.390625 424.050781 C 585.683594 424.050781 585.113281 424.621094 585.113281 425.324219 C 585.113281 426.027344 585.683594 426.601562 586.390625 426.601562 L 686.429688 426.601562 C 687.136719 426.601562 687.707031 426.03125 687.707031 425.324219 C 687.707031 424.621094 687.136719 424.050781 686.433594 424.050781 Z M 686.433594 412.445312 L 586.390625 412.445312 C 585.683594 412.445312 585.113281 413.015625 585.113281 413.71875 C 585.113281 414.421875 585.683594 414.992188 586.390625 414.992188 L 686.429688 414.992188 C 687.136719 414.992188 687.707031 414.421875 687.707031 413.71875 C 687.707031 413.015625 687.136719 412.445312 686.433594 412.445312 Z M 586.390625 403.386719 L 686.429688 403.386719 C 687.136719 403.386719 687.707031 402.816406 687.707031 402.109375 C 687.707031 401.40625 687.136719 400.835938 686.429688 400.835938 L 586.390625 400.835938 C 585.683594 400.835938 585.113281 401.40625 585.113281 402.109375 C 585.117188 402.816406 585.6875 403.386719 586.390625 403.386719 Z M 586.390625 391.777344 L 686.429688 391.777344 C 687.136719 391.777344 687.707031 391.207031 687.707031 390.503906 C 687.707031 389.800781 687.136719 389.230469 686.429688 389.230469 L 586.390625 389.230469 C 585.683594 389.230469 585.113281 389.800781 585.113281 390.503906 C 585.117188 391.207031 585.6875 391.777344 586.390625 391.777344 Z M 586.390625 391.777344 " fill-opacity="1" fill-rule="nonzero"/><g clip-path="url(#e41d624240)"><path fill="#efefef" d="M 833.050781 552.429688 C 821.277344 552.429688 811.738281 533.019531 811.738281 509.074219 C 811.738281 485.132812 821.28125 465.71875 833.050781 465.71875 C 844.820312 465.71875 854.359375 485.128906 854.359375 509.074219 C 854.363281 533.019531 844.820312 552.429688 833.050781 552.429688 Z M 1137.082031 465.722656 C 1125.308594 465.722656 1115.769531 485.132812 1115.769531 509.078125 C 1115.769531 533.023438 1125.3125 552.429688 1137.082031 552.429688 C 1148.851562 552.429688 1158.390625 533.023438 1158.390625 509.078125 C 1158.390625 485.128906 1148.851562 465.722656 1137.082031 465.722656 Z M 718.5625 448.535156 L 718.5625 458.417969 C 718.5625 462.019531 721.488281 464.945312 725.085938 464.945312 L 765.757812 464.945312 L 765.757812 442.007812 L 725.085938 442.007812 C 721.488281 442.011719 718.5625 444.9375 718.5625 448.535156 Z M 559.90625 464.945312 C 563.515625 464.945312 566.429688 462.019531 566.429688 458.417969 L 566.429688 448.535156 C 566.429688 444.9375 563.515625 442.011719 559.90625 442.011719 L 519.234375 442.011719 L 519.234375 464.945312 Z M 945.964844 285.738281 C 946.847656 284.179688 947.765625 282.699219 948.742188 281.359375 C 950.265625 279.269531 953.84375 275.546875 956.121094 273.1875 C 956.636719 272.652344 956.460938 271.023438 955.886719 270.980469 C 951.628906 270.660156 948.191406 270.488281 948.191406 270.488281 C 946.234375 270.488281 944.640625 273.839844 944.640625 277.960938 L 944.640625 284.433594 C 944.640625 285.882812 945.441406 286.667969 945.964844 285.738281 Z M 966.757812 272.058594 C 966.753906 272.058594 966.75 272.058594 966.742188 272.058594 C 965.703125 271.910156 964.667969 272.414062 963.761719 273.496094 C 962.097656 275.472656 959.269531 278.710938 957.648438 280.355469 C 955.484375 282.554688 953.273438 284.542969 951.222656 287.210938 C 950.792969 287.765625 950.371094 288.351562 949.960938 288.957031 C 946.554688 293.976562 944.640625 302.378906 944.640625 311.132812 C 944.640625 315.304688 947.101562 317.148438 948.378906 313.960938 C 953.78125 300.480469 960.507812 289.179688 967.652344 279.230469 C 969.144531 277.15625 968.542969 272.308594 966.757812 272.058594 Z M 991.210938 285.738281 C 992.089844 284.179688 993.007812 282.699219 993.984375 281.359375 C 995.507812 279.269531 999.085938 275.546875 1001.363281 273.1875 C 1001.882812 272.652344 1001.703125 271.023438 1001.128906 270.980469 C 996.871094 270.660156 993.4375 270.488281 993.4375 270.488281 C 991.480469 270.488281 989.882812 273.839844 989.882812 277.960938 L 989.882812 284.433594 C 989.882812 285.882812 990.683594 286.667969 991.210938 285.738281 Z M 1012.003906 272.058594 C 1012 272.058594 1011.996094 272.058594 1011.988281 272.058594 C 1010.949219 271.910156 1009.914062 272.414062 1009.007812 273.496094 C 1007.34375 275.472656 1004.515625 278.710938 1002.894531 280.355469 C 1000.730469 282.554688 998.515625 284.542969 996.464844 287.210938 C 996.039062 287.765625 995.617188 288.351562 995.207031 288.957031 C 991.800781 293.976562 989.886719 302.378906 989.886719 311.132812 C 989.886719 315.304688 992.347656 317.148438 993.625 313.960938 C 999.027344 300.480469 1005.753906 289.179688 1012.898438 279.230469 C 1014.390625 277.15625 1013.789062 272.308594 1012.003906 272.058594 Z M 1036.457031 285.738281 C 1037.335938 284.179688 1038.253906 282.699219 1039.230469 281.359375 C 1040.753906 279.269531 1044.335938 275.546875 1046.609375 273.1875 C 1047.128906 272.652344 1046.949219 271.023438 1046.375 270.980469 C 1042.117188 270.660156 1038.683594 270.488281 1038.683594 270.488281 C 1036.726562 270.488281 1035.128906 273.839844 1035.128906 277.960938 L 1035.128906 284.433594 C 1035.128906 285.882812 1035.929688 286.667969 1036.457031 285.738281 Z M 1057.25 272.058594 C 1057.242188 272.058594 1057.238281 272.058594 1057.234375 272.058594 C 1056.191406 271.910156 1055.160156 272.414062 1054.25 273.496094 C 1052.589844 275.472656 1049.761719 278.710938 1048.140625 280.355469 C 1045.972656 282.554688 1043.761719 284.542969 1041.710938 287.210938 C 1041.285156 287.765625 1040.863281 288.351562 1040.453125 288.957031 C 1037.046875 293.976562 1035.128906 302.378906 1035.128906 311.132812 C 1035.128906 315.304688 1037.589844 317.148438 1038.871094 313.960938 C 1044.273438 300.480469 1051 289.179688 1058.144531 279.230469 C 1059.636719 277.15625 1059.035156 272.308594 1057.25 272.058594 Z M 1081.703125 285.738281 C 1082.582031 284.179688 1083.5 282.699219 1084.476562 281.359375 C 1086 279.269531 1089.578125 275.546875 1091.855469 273.1875 C 1092.371094 272.652344 1092.195312 271.023438 1091.621094 270.980469 C 1087.363281 270.660156 1083.925781 270.488281 1083.925781 270.488281 C 1081.96875 270.488281 1080.375 273.839844 1080.375 277.960938 L 1080.375 284.433594 C 1080.375 285.882812 1081.175781 286.667969 1081.703125 285.738281 Z M 1102.496094 272.058594 C 1102.488281 272.058594 1102.484375 272.058594 1102.480469 272.058594 C 1101.4375 271.910156 1100.40625 272.414062 1099.496094 273.496094 C 1097.835938 275.472656 1095.007812 278.710938 1093.386719 280.355469 C 1091.21875 282.554688 1089.007812 284.542969 1086.957031 287.210938 C 1086.53125 287.765625 1086.109375 288.351562 1085.699219 288.957031 C 1082.292969 293.976562 1080.375 302.378906 1080.375 311.132812 C 1080.375 315.304688 1082.839844 317.148438 1084.117188 313.960938 C 1089.519531 300.480469 1096.246094 289.179688 1103.390625 279.230469 C 1104.878906 277.15625 1104.277344 272.308594 1102.496094 272.058594 Z M 1126.949219 285.738281 C 1127.828125 284.179688 1128.746094 282.699219 1129.722656 281.359375 C 1131.246094 279.269531 1134.824219 275.546875 1137.101562 273.1875 C 1137.617188 272.652344 1137.441406 271.023438 1136.867188 270.980469 C 1132.609375 270.660156 1129.171875 270.488281 1129.171875 270.488281 C 1127.214844 270.488281 1125.621094 273.839844 1125.621094 277.960938 L 1125.621094 284.433594 C 1125.621094 285.882812 1126.421875 286.667969 1126.949219 285.738281 Z M 1147.742188 272.058594 C 1147.734375 272.058594 1147.730469 272.058594 1147.726562 272.058594 C 1146.683594 271.910156 1145.652344 272.414062 1144.742188 273.496094 C 1143.082031 275.472656 1140.253906 278.710938 1138.632812 280.355469 C 1136.464844 282.554688 1134.253906 284.542969 1132.203125 287.210938 C 1131.773438 287.765625 1131.355469 288.351562 1130.945312 288.957031 C 1127.539062 293.976562 1125.621094 302.378906 1125.621094 311.132812 C 1125.621094 315.304688 1128.085938 317.148438 1129.363281 313.960938 C 1134.765625 300.480469 1141.492188 289.179688 1148.636719 279.230469 C 1150.125 277.15625 1149.523438 272.308594 1147.742188 272.058594 Z M 1170.863281 277.960938 L 1170.863281 284.433594 C 1170.863281 285.882812 1171.664062 286.671875 1172.191406 285.738281 C 1173.070312 284.179688 1173.988281 282.699219 1174.964844 281.359375 C 1176.488281 279.269531 1180.070312 275.546875 1182.34375 273.1875 C 1182.863281 272.652344 1182.683594 271.023438 1182.113281 270.980469 C 1177.851562 270.660156 1174.417969 270.488281 1174.417969 270.488281 C 1172.460938 270.488281 1170.863281 273.839844 1170.863281 277.960938 Z M 1177.449219 287.210938 C 1177.019531 287.769531 1176.597656 288.351562 1176.1875 288.957031 C 1172.78125 293.976562 1170.863281 302.382812 1170.863281 311.132812 C 1170.863281 315.304688 1173.328125 317.148438 1174.605469 313.960938 C 1180.007812 300.480469 1186.734375 289.183594 1193.878906 279.230469 C 1195.371094 277.15625 1194.769531 272.308594 1192.984375 272.058594 C 1192.980469 272.058594 1192.976562 272.058594 1192.96875 272.058594 C 1191.929688 271.910156 1190.894531 272.414062 1189.988281 273.496094 C 1188.324219 275.472656 1185.496094 278.710938 1183.875 280.355469 C 1181.710938 282.554688 1179.496094 284.546875 1177.449219 287.210938 Z M 850.929688 235.4375 C 855.042969 235.4375 858.382812 232.101562 858.382812 227.984375 C 858.382812 223.871094 855.042969 220.53125 850.929688 220.53125 C 846.8125 220.53125 843.476562 223.871094 843.476562 227.984375 C 843.476562 232.101562 846.8125 235.4375 850.929688 235.4375 Z M 826.753906 235.4375 C 830.871094 235.4375 834.207031 232.101562 834.207031 227.984375 C 834.207031 223.871094 830.871094 220.53125 826.753906 220.53125 C 822.636719 220.53125 819.300781 223.871094 819.300781 227.984375 C 819.300781 232.101562 822.636719 235.4375 826.753906 235.4375 Z M 676.875 220.535156 C 672.761719 220.535156 669.421875 223.871094 669.421875 227.988281 C 669.421875 232.105469 672.761719 235.441406 676.875 235.441406 C 680.992188 235.441406 684.328125 232.101562 684.328125 227.988281 C 684.328125 223.871094 680.992188 220.535156 676.875 220.535156 Z M 652.699219 220.535156 C 648.582031 220.535156 645.246094 223.871094 645.246094 227.988281 C 645.246094 232.105469 648.582031 235.441406 652.699219 235.441406 C 656.816406 235.441406 660.15625 232.101562 660.15625 227.988281 C 660.15625 223.871094 656.816406 220.535156 652.699219 220.535156 Z M 828.863281 270.753906 L 817.898438 270.738281 C 816.800781 270.734375 815.789062 271.335938 815.265625 272.300781 L 780.773438 335.726562 C 779.6875 337.71875 781.132812 340.148438 783.402344 340.148438 L 784.230469 340.148438 C 791.578125 340.148438 798.339844 336.128906 801.851562 329.675781 L 831.488281 275.175781 C 832.574219 273.183594 831.132812 270.757812 828.863281 270.753906 Z M 848.945312 270.769531 L 844.542969 270.765625 C 842.203125 270.761719 840.050781 272.039062 838.933594 274.09375 L 804.605469 337.214844 C 803.886719 338.535156 804.84375 340.148438 806.351562 340.148438 L 811.25 340.148438 C 812.480469 340.148438 813.617188 339.476562 814.207031 338.394531 L 850.011719 272.566406 C 850.449219 271.757812 849.867188 270.773438 848.945312 270.769531 Z M 848.945312 270.769531 " fill-opacity="1" fill-rule="nonzero"/></g><g clip-path="url(#1dadb8f37d)"><path fill="#000000" d="M 1216.816406 487.15625 C 1216.816406 496.957031 1208.914062 504.925781 1199.113281 505 L 1177.355469 504.214844 L 1162.261719 451.285156 C 1159.644531 442.113281 1151.269531 435.792969 1141.730469 435.792969 L 1124.820312 435.792969 C 1114.992188 435.792969 1106.4375 442.496094 1104.089844 452.042969 L 1091.253906 504.210938 L 944.269531 504.210938 C 946.230469 501.625 947.40625 498.414062 947.40625 494.925781 L 947.40625 467.621094 C 947.40625 459.117188 940.488281 452.199219 931.984375 452.199219 L 911.285156 452.199219 C 902.785156 452.199219 895.867188 459.117188 895.867188 467.621094 L 895.867188 494.925781 C 895.867188 498.414062 897.042969 501.625 899.003906 504.210938 L 874.378906 504.210938 C 876.660156 439.082031 852.898438 417.679688 831.675781 424.636719 C 814.960938 430.113281 806.589844 454.339844 802.402344 477.5 L 512.464844 477.5 L 512.464844 507.257812 C 512.464844 516.488281 519.949219 523.96875 529.175781 523.96875 L 552.132812 523.96875 C 555.78125 550.867188 569.300781 570.34375 587.625 574.828125 C 590.265625 575.464844 593.003906 575.800781 595.828125 575.800781 L 614.851562 575.800781 C 616.761719 575.800781 618.640625 575.648438 620.464844 575.339844 C 640.101562 572.140625 654.726562 552.117188 658.546875 523.96875 L 763.988281 523.96875 C 767.636719 550.867188 781.160156 570.34375 799.484375 574.828125 C 802.121094 575.464844 804.863281 575.800781 807.683594 575.800781 L 826.710938 575.800781 C 828.621094 575.800781 830.5 575.648438 832.324219 575.339844 C 845.46875 573.199219 856.367188 563.511719 863.285156 548.902344 C 869.746094 562.542969 879.671875 571.894531 891.65625 574.828125 C 894.292969 575.464844 897.035156 575.800781 899.859375 575.800781 L 918.886719 575.800781 C 920.792969 575.800781 922.671875 575.648438 924.496094 575.339844 C 945.308594 571.949219 960.5 549.671875 963.15625 518.84375 L 1067.453125 518.84375 C 1069.996094 548.375 1084.046875 570.066406 1103.519531 574.824219 C 1106.15625 575.460938 1108.894531 575.796875 1111.71875 575.796875 L 1130.746094 575.796875 C 1132.652344 575.796875 1134.53125 575.648438 1136.355469 575.339844 C 1157.167969 571.949219 1172.359375 549.671875 1175.015625 518.839844 L 1199.671875 518.839844 C 1209.164062 518.839844 1216.859375 511.144531 1216.859375 501.652344 L 1216.859375 459.796875 Z M 898.414062 494.929688 L 898.414062 467.625 C 898.414062 460.523438 904.1875 454.75 911.285156 454.75 L 931.984375 454.75 C 939.082031 454.75 944.859375 460.523438 944.859375 467.625 L 944.859375 494.929688 C 944.859375 498.578125 943.324219 501.867188 940.878906 504.214844 L 902.390625 504.214844 C 899.945312 501.867188 898.414062 498.578125 898.414062 494.929688 Z M 757.355469 490.65625 C 762.441406 490.65625 766.5625 494.777344 766.5625 499.867188 C 766.5625 504.953125 762.441406 509.074219 757.355469 509.074219 C 752.265625 509.074219 748.144531 504.953125 748.144531 499.867188 C 748.144531 494.777344 752.269531 490.65625 757.355469 490.65625 Z M 727.480469 490.65625 C 732.566406 490.65625 736.691406 494.777344 736.691406 499.867188 C 736.691406 504.953125 732.566406 509.074219 727.480469 509.074219 C 722.394531 509.074219 718.273438 504.953125 718.273438 499.867188 C 718.273438 494.777344 722.394531 490.65625 727.480469 490.65625 Z M 527.648438 509.074219 C 522.5625 509.074219 518.441406 504.953125 518.441406 499.867188 C 518.441406 494.777344 522.5625 490.65625 527.648438 490.65625 C 532.734375 490.65625 536.859375 494.777344 536.859375 499.867188 C 536.859375 504.953125 532.734375 509.074219 527.648438 509.074219 Z M 548.3125 499.867188 C 548.3125 494.777344 552.433594 490.65625 557.511719 490.65625 C 562.597656 490.65625 566.722656 494.777344 566.722656 499.867188 C 566.722656 504.953125 562.597656 509.074219 557.511719 509.074219 C 552.4375 509.074219 548.3125 504.953125 548.3125 499.867188 Z M 833.050781 552.429688 C 821.277344 552.429688 811.738281 533.019531 811.738281 509.074219 C 811.738281 485.132812 821.28125 465.71875 833.050781 465.71875 C 844.820312 465.71875 854.359375 485.128906 854.359375 509.074219 C 854.363281 533.019531 844.820312 552.429688 833.050781 552.429688 Z M 1137.082031 552.429688 C 1125.308594 552.429688 1115.769531 533.019531 1115.769531 509.074219 C 1115.769531 485.132812 1125.3125 465.71875 1137.082031 465.71875 C 1148.851562 465.71875 1158.390625 485.128906 1158.390625 509.074219 C 1158.390625 533.019531 1148.851562 552.429688 1137.082031 552.429688 Z M 557.660156 436.523438 L 557.660156 409.820312 C 557.660156 409.113281 558.230469 408.546875 558.933594 408.546875 C 559.636719 408.546875 560.207031 409.113281 560.207031 409.820312 L 560.207031 436.523438 C 560.207031 437.226562 559.636719 437.796875 558.933594 437.796875 C 558.230469 437.796875 557.660156 437.226562 557.660156 436.523438 Z M 618.019531 350.308594 C 618.019531 349.605469 618.589844 349.035156 619.296875 349.035156 L 811.984375 349.035156 C 836.757812 349.035156 856.914062 369.1875 856.914062 393.960938 L 856.914062 411.929688 C 869.851562 417.847656 878.867188 430.90625 878.867188 446.039062 L 878.867188 451.039062 C 878.867188 451.742188 878.296875 452.3125 877.59375 452.3125 C 876.890625 452.3125 876.320312 451.742188 876.320312 451.039062 L 876.320312 446.039062 C 876.320312 426.769531 860.640625 411.09375 841.371094 411.09375 L 796.003906 411.09375 C 777.800781 411.09375 761.457031 421.925781 754.367188 438.691406 C 754.160156 439.179688 753.6875 439.472656 753.191406 439.472656 C 753.027344 439.472656 752.859375 439.4375 752.695312 439.371094 C 752.050781 439.09375 751.746094 438.347656 752.019531 437.699219 C 759.511719 419.988281 776.777344 408.542969 796.007812 408.542969 L 841.375 408.542969 C 845.9375 408.542969 850.316406 409.363281 854.363281 410.863281 L 854.363281 393.960938 C 854.363281 370.589844 835.355469 351.578125 811.984375 351.578125 L 619.296875 351.578125 C 618.589844 351.582031 618.019531 351.011719 618.019531 350.308594 Z M 573.605469 428.84375 C 573.605469 437.464844 580.597656 444.449219 589.21875 444.449219 L 683.605469 444.449219 C 692.222656 444.449219 699.21875 437.464844 699.21875 428.84375 L 699.21875 398.597656 C 699.21875 389.980469 692.222656 382.984375 683.605469 382.984375 L 589.21875 382.984375 C 580.597656 382.984375 573.605469 389.980469 573.605469 398.597656 Z M 686.433594 438.207031 L 586.390625 438.207031 C 585.683594 438.207031 585.113281 437.636719 585.113281 436.933594 C 585.113281 436.230469 585.683594 435.65625 586.390625 435.65625 L 686.429688 435.65625 C 687.136719 435.65625 687.707031 436.226562 687.707031 436.933594 C 687.707031 437.636719 687.136719 438.207031 686.433594 438.207031 Z M 686.433594 426.597656 L 586.390625 426.597656 C 585.683594 426.597656 585.113281 426.027344 585.113281 425.324219 C 585.113281 424.621094 585.683594 424.050781 586.390625 424.050781 L 686.429688 424.050781 C 687.136719 424.050781 687.707031 424.621094 687.707031 425.324219 C 687.707031 426.027344 687.136719 426.597656 686.433594 426.597656 Z M 686.433594 414.992188 L 586.390625 414.992188 C 585.683594 414.992188 585.113281 414.421875 585.113281 413.71875 C 585.113281 413.011719 585.683594 412.441406 586.390625 412.441406 L 686.429688 412.441406 C 687.136719 412.441406 687.707031 413.011719 687.707031 413.71875 C 687.707031 414.421875 687.136719 414.992188 686.433594 414.992188 Z M 586.390625 389.230469 L 686.429688 389.230469 C 687.136719 389.230469 687.707031 389.800781 687.707031 390.503906 C 687.707031 391.207031 687.136719 391.777344 686.429688 391.777344 L 586.390625 391.777344 C 585.683594 391.777344 585.113281 391.207031 585.113281 390.503906 C 585.117188 389.800781 585.6875 389.230469 586.390625 389.230469 Z M 586.390625 400.835938 L 686.429688 400.835938 C 687.136719 400.835938 687.707031 401.40625 687.707031 402.109375 C 687.707031 402.816406 687.136719 403.386719 686.429688 403.386719 L 586.390625 403.386719 C 585.683594 403.386719 585.113281 402.816406 585.113281 402.109375 C 585.117188 401.40625 585.6875 400.835938 586.390625 400.835938 Z M 862.921875 333.066406 L 862.921875 277.820312 C 862.921875 271.347656 857.675781 266.113281 851.207031 266.113281 L 636.453125 266.113281 C 629.980469 266.113281 624.746094 271.347656 624.746094 277.820312 L 624.746094 333.066406 C 624.746094 339.527344 629.980469 344.769531 636.453125 344.769531 L 851.207031 344.769531 C 857.675781 344.769531 862.921875 339.527344 862.921875 333.066406 Z M 784.234375 340.148438 L 783.402344 340.148438 C 781.132812 340.148438 779.6875 337.71875 780.773438 335.722656 L 815.265625 272.300781 C 815.792969 271.335938 816.800781 270.734375 817.898438 270.734375 L 828.867188 270.75 C 831.132812 270.753906 832.574219 273.183594 831.492188 275.175781 L 801.851562 329.671875 C 798.339844 336.128906 791.578125 340.148438 784.234375 340.148438 Z M 850.011719 272.566406 L 814.207031 338.394531 C 813.617188 339.476562 812.480469 340.148438 811.25 340.148438 L 806.351562 340.148438 C 804.84375 340.148438 803.886719 338.539062 804.605469 337.214844 L 838.933594 274.097656 C 840.050781 272.042969 842.203125 270.761719 844.542969 270.765625 L 848.945312 270.773438 C 849.867188 270.773438 850.449219 271.757812 850.011719 272.566406 Z M 900.277344 296.171875 L 900.277344 332.609375 C 900.277344 335.835938 902.894531 338.453125 906.125 338.453125 L 909.699219 338.453125 C 908.875 340.15625 907.148438 341.339844 905.136719 341.339844 L 895.417969 341.339844 C 895.308594 341.339844 895.207031 341.316406 895.097656 341.308594 L 895.097656 287.472656 C 895.203125 287.464844 895.308594 287.441406 895.417969 287.441406 L 905.136719 287.441406 C 907.148438 287.441406 908.878906 288.625 909.699219 290.328125 L 906.125 290.328125 C 902.894531 290.328125 900.277344 292.945312 900.277344 296.171875 Z M 895.09375 284.667969 L 895.09375 280.308594 C 895.09375 274.015625 900.195312 268.914062 906.484375 268.914062 L 920.347656 268.914062 C 926.636719 268.914062 931.738281 274.015625 931.738281 280.304688 L 931.738281 344.082031 C 931.738281 350.371094 926.636719 355.472656 920.347656 355.472656 L 906.484375 355.472656 C 900.207031 355.472656 895.113281 350.390625 895.097656 344.113281 C 895.207031 344.117188 895.308594 344.144531 895.417969 344.144531 L 905.136719 344.144531 C 908.71875 344.144531 911.714844 341.730469 912.671875 338.457031 L 916.167969 338.457031 C 919.398438 338.457031 922.015625 335.835938 922.015625 332.609375 L 922.015625 296.171875 C 922.015625 292.945312 919.398438 290.328125 916.167969 290.328125 L 912.671875 290.328125 C 911.714844 287.050781 908.71875 284.636719 905.136719 284.636719 L 895.417969 284.636719 C 895.308594 284.636719 895.203125 284.664062 895.09375 284.667969 Z M 965.59375 347.992188 C 971.886719 347.992188 976.984375 342.890625 976.984375 336.601562 L 976.984375 272.828125 C 976.984375 266.539062 971.886719 261.4375 965.59375 261.4375 L 951.730469 261.4375 C 945.441406 261.4375 940.339844 266.539062 940.339844 272.828125 L 940.339844 336.601562 C 940.339844 342.894531 945.441406 347.992188 951.730469 347.992188 Z M 944.640625 277.960938 C 944.640625 273.839844 946.234375 270.488281 948.191406 270.488281 C 948.191406 270.488281 951.628906 270.660156 955.886719 270.980469 C 956.460938 271.023438 956.636719 272.652344 956.121094 273.1875 C 953.84375 275.546875 950.265625 279.269531 948.742188 281.359375 C 947.761719 282.699219 946.847656 284.179688 945.96875 285.738281 C 945.441406 286.671875 944.640625 285.882812 944.640625 284.433594 Z M 944.640625 311.128906 C 944.640625 302.378906 946.554688 293.972656 949.964844 288.953125 C 950.375 288.347656 950.796875 287.765625 951.222656 287.207031 C 953.273438 284.542969 955.484375 282.554688 957.652344 280.355469 C 959.273438 278.710938 962.101562 275.472656 963.761719 273.496094 C 964.671875 272.414062 965.703125 271.910156 966.746094 272.054688 C 966.75 272.058594 966.753906 272.058594 966.761719 272.058594 C 968.542969 272.308594 969.144531 277.15625 967.65625 279.230469 C 960.507812 289.179688 953.785156 300.480469 948.378906 313.960938 C 947.101562 317.148438 944.640625 315.304688 944.640625 311.128906 Z M 1010.835938 347.992188 C 1017.128906 347.992188 1022.226562 342.890625 1022.226562 336.601562 L 1022.226562 272.828125 C 1022.226562 266.539062 1017.128906 261.4375 1010.835938 261.4375 L 996.976562 261.4375 C 990.683594 261.4375 985.585938 266.539062 985.585938 272.828125 L 985.585938 336.601562 C 985.585938 342.894531 990.683594 347.992188 996.976562 347.992188 Z M 989.882812 277.960938 C 989.882812 273.839844 991.480469 270.488281 993.4375 270.488281 C 993.4375 270.488281 996.871094 270.660156 1001.128906 270.980469 C 1001.707031 271.023438 1001.882812 272.652344 1001.363281 273.1875 C 999.085938 275.546875 995.507812 279.269531 993.984375 281.359375 C 993.007812 282.699219 992.089844 284.179688 991.210938 285.738281 C 990.683594 286.671875 989.882812 285.882812 989.882812 284.433594 Z M 989.882812 311.128906 C 989.882812 302.378906 991.800781 293.972656 995.207031 288.953125 C 995.617188 288.347656 996.035156 287.765625 996.464844 287.207031 C 998.515625 284.542969 1000.726562 282.554688 1002.894531 280.355469 C 1004.515625 278.710938 1007.34375 275.472656 1009.003906 273.496094 C 1009.914062 272.414062 1010.945312 271.910156 1011.988281 272.054688 C 1011.992188 272.058594 1012 272.058594 1012.003906 272.058594 C 1013.785156 272.308594 1014.386719 277.15625 1012.898438 279.230469 C 1005.75 289.179688 999.027344 300.480469 993.621094 313.960938 C 992.347656 317.148438 989.882812 315.304688 989.882812 311.128906 Z M 1056.082031 347.992188 C 1062.375 347.992188 1067.472656 342.890625 1067.472656 336.601562 L 1067.472656 272.828125 C 1067.472656 266.539062 1062.375 261.4375 1056.082031 261.4375 L 1042.222656 261.4375 C 1035.929688 261.4375 1030.832031 266.539062 1030.832031 272.828125 L 1030.832031 336.601562 C 1030.832031 342.894531 1035.929688 347.992188 1042.222656 347.992188 Z M 1035.128906 277.960938 C 1035.128906 273.839844 1036.726562 270.488281 1038.683594 270.488281 C 1038.683594 270.488281 1042.117188 270.660156 1046.375 270.980469 C 1046.953125 271.023438 1047.128906 272.652344 1046.609375 273.1875 C 1044.335938 275.546875 1040.753906 279.269531 1039.230469 281.359375 C 1038.253906 282.699219 1037.335938 284.179688 1036.457031 285.738281 C 1035.929688 286.671875 1035.128906 285.882812 1035.128906 284.433594 Z M 1035.128906 311.128906 C 1035.128906 302.378906 1037.046875 293.972656 1040.453125 288.953125 C 1040.863281 288.347656 1041.285156 287.765625 1041.710938 287.207031 C 1043.761719 284.542969 1045.976562 282.554688 1048.140625 280.355469 C 1049.761719 278.710938 1052.589844 275.472656 1054.253906 273.496094 C 1055.160156 272.414062 1056.195312 271.910156 1057.234375 272.054688 C 1057.242188 272.058594 1057.246094 272.058594 1057.25 272.058594 C 1059.035156 272.308594 1059.636719 277.15625 1058.144531 279.230469 C 1051 289.179688 1044.273438 300.480469 1038.871094 313.960938 C 1037.589844 317.148438 1035.128906 315.304688 1035.128906 311.128906 Z M 1101.328125 347.992188 C 1107.621094 347.992188 1112.71875 342.890625 1112.71875 336.601562 L 1112.71875 272.828125 C 1112.71875 266.539062 1107.621094 261.4375 1101.328125 261.4375 L 1087.464844 261.4375 C 1081.175781 261.4375 1076.074219 266.539062 1076.074219 272.828125 L 1076.074219 336.601562 C 1076.074219 342.894531 1081.175781 347.992188 1087.464844 347.992188 Z M 1080.375 277.960938 C 1080.375 273.839844 1081.96875 270.488281 1083.925781 270.488281 C 1083.925781 270.488281 1087.363281 270.660156 1091.621094 270.980469 C 1092.195312 271.023438 1092.371094 272.652344 1091.855469 273.1875 C 1089.578125 275.546875 1086 279.269531 1084.476562 281.359375 C 1083.496094 282.699219 1082.582031 284.179688 1081.703125 285.738281 C 1081.175781 286.671875 1080.375 285.882812 1080.375 284.433594 Z M 1080.375 311.128906 C 1080.375 302.378906 1082.289062 293.972656 1085.695312 288.953125 C 1086.109375 288.347656 1086.527344 287.765625 1086.957031 287.207031 C 1089.007812 284.542969 1091.21875 282.554688 1093.386719 280.355469 C 1095.007812 278.710938 1097.835938 275.472656 1099.496094 273.496094 C 1100.402344 272.414062 1101.4375 271.910156 1102.480469 272.054688 C 1102.484375 272.058594 1102.488281 272.058594 1102.496094 272.058594 C 1104.277344 272.308594 1104.878906 277.15625 1103.386719 279.230469 C 1096.242188 289.179688 1089.515625 300.480469 1084.113281 313.960938 C 1082.835938 317.148438 1080.375 315.304688 1080.375 311.128906 Z M 1146.574219 347.992188 C 1152.867188 347.992188 1157.964844 342.890625 1157.964844 336.601562 L 1157.964844 272.828125 C 1157.964844 266.539062 1152.867188 261.4375 1146.574219 261.4375 L 1132.710938 261.4375 C 1126.421875 261.4375 1121.320312 266.539062 1121.320312 272.828125 L 1121.320312 336.601562 C 1121.320312 342.894531 1126.421875 347.992188 1132.710938 347.992188 Z M 1125.621094 277.960938 C 1125.621094 273.839844 1127.214844 270.488281 1129.175781 270.488281 C 1129.175781 270.488281 1132.609375 270.660156 1136.867188 270.980469 C 1137.445312 271.023438 1137.617188 272.652344 1137.105469 273.1875 C 1134.828125 275.546875 1131.246094 279.269531 1129.722656 281.359375 C 1128.746094 282.699219 1127.828125 284.179688 1126.949219 285.738281 C 1126.421875 286.671875 1125.621094 285.882812 1125.621094 284.433594 Z M 1125.621094 311.128906 C 1125.621094 302.378906 1127.539062 293.972656 1130.945312 288.953125 C 1131.355469 288.347656 1131.773438 287.765625 1132.203125 287.207031 C 1134.253906 284.542969 1136.464844 282.554688 1138.632812 280.355469 C 1140.253906 278.710938 1143.082031 275.472656 1144.742188 273.496094 C 1145.652344 272.414062 1146.683594 271.910156 1147.726562 272.054688 C 1147.730469 272.058594 1147.734375 272.058594 1147.742188 272.058594 C 1149.523438 272.308594 1150.125 277.15625 1148.632812 279.230469 C 1141.488281 289.179688 1134.765625 300.480469 1129.359375 313.960938 C 1128.082031 317.148438 1125.621094 315.304688 1125.621094 311.128906 Z M 1166.566406 272.828125 L 1166.566406 336.601562 C 1166.566406 342.894531 1171.664062 347.992188 1177.957031 347.992188 L 1191.816406 347.992188 C 1198.109375 347.992188 1203.207031 342.894531 1203.207031 336.601562 L 1203.207031 272.828125 C 1203.207031 266.539062 1198.109375 261.4375 1191.816406 261.4375 L 1177.957031 261.4375 C 1171.664062 261.4375 1166.566406 266.535156 1166.566406 272.828125 Z M 1189.988281 273.496094 C 1190.894531 272.414062 1191.929688 271.910156 1192.96875 272.058594 C 1192.976562 272.058594 1192.980469 272.058594 1192.984375 272.058594 C 1194.769531 272.308594 1195.371094 277.15625 1193.878906 279.230469 C 1186.734375 289.179688 1180.007812 300.480469 1174.605469 313.960938 C 1173.328125 317.148438 1170.863281 315.304688 1170.863281 311.132812 C 1170.863281 302.382812 1172.78125 293.976562 1176.1875 288.957031 C 1176.597656 288.351562 1177.019531 287.769531 1177.449219 287.210938 C 1179.496094 284.546875 1181.710938 282.558594 1183.875 280.359375 C 1185.496094 278.710938 1188.324219 275.472656 1189.988281 273.496094 Z M 1182.347656 273.1875 C 1180.070312 275.546875 1176.488281 279.269531 1174.964844 281.359375 C 1173.988281 282.699219 1173.070312 284.179688 1172.191406 285.738281 C 1171.667969 286.671875 1170.867188 285.882812 1170.867188 284.433594 L 1170.867188 277.960938 C 1170.867188 273.839844 1172.460938 270.488281 1174.417969 270.488281 C 1174.417969 270.488281 1177.855469 270.660156 1182.113281 270.980469 C 1182.6875 271.023438 1182.863281 272.652344 1182.347656 273.1875 Z M 813.203125 244.386719 L 874.347656 244.386719 C 872.828125 234.097656 867.777344 224.539062 859.96875 217.476562 C 851.65625 209.917969 840.871094 205.753906 829.609375 205.753906 L 813.203125 205.753906 Z M 850.929688 220.535156 C 855.042969 220.535156 858.382812 223.871094 858.382812 227.988281 C 858.382812 232.105469 855.042969 235.441406 850.929688 235.441406 C 846.8125 235.441406 843.476562 232.101562 843.476562 227.988281 C 843.476562 223.871094 846.8125 220.535156 850.929688 220.535156 Z M 826.753906 220.535156 C 830.871094 220.535156 834.207031 223.871094 834.207031 227.988281 C 834.207031 232.105469 830.871094 235.441406 826.753906 235.441406 C 822.636719 235.441406 819.300781 232.101562 819.300781 227.988281 C 819.300781 223.871094 822.636719 220.535156 826.753906 220.535156 Z M 690.269531 205.753906 L 673.871094 205.753906 C 651.171875 205.753906 632.324219 222.5625 629.125 244.386719 L 690.269531 244.386719 Z M 652.699219 235.4375 C 648.582031 235.4375 645.246094 232.101562 645.246094 227.984375 C 645.246094 223.871094 648.582031 220.53125 652.699219 220.53125 C 656.816406 220.53125 660.15625 223.871094 660.15625 227.984375 C 660.15625 232.101562 656.816406 235.4375 652.699219 235.4375 Z M 676.875 235.4375 C 672.761719 235.4375 669.421875 232.101562 669.421875 227.984375 C 669.421875 223.871094 672.761719 220.53125 676.875 220.53125 C 680.992188 220.53125 684.328125 223.871094 684.328125 227.984375 C 684.328125 232.101562 680.992188 235.4375 676.875 235.4375 Z M 694.847656 244.511719 C 694.847656 243.804688 695.421875 243.238281 696.125 243.238281 L 807.347656 243.238281 C 808.050781 243.238281 808.625 243.804688 808.625 244.511719 C 808.625 245.214844 808.050781 245.785156 807.347656 245.785156 L 696.125 245.785156 C 695.421875 245.785156 694.847656 245.214844 694.847656 244.511719 Z M 694.847656 235.210938 C 694.847656 234.507812 695.421875 233.9375 696.125 233.9375 L 807.347656 233.9375 C 808.050781 233.9375 808.625 234.507812 808.625 235.210938 C 808.625 235.914062 808.050781 236.488281 807.347656 236.488281 L 696.125 236.488281 C 695.421875 236.484375 694.847656 235.914062 694.847656 235.210938 Z M 694.847656 225.914062 C 694.847656 225.207031 695.421875 224.636719 696.125 224.636719 L 807.347656 224.636719 C 808.050781 224.636719 808.625 225.207031 808.625 225.914062 C 808.625 226.617188 808.050781 227.1875 807.347656 227.1875 L 696.125 227.1875 C 695.421875 227.1875 694.847656 226.617188 694.847656 225.914062 Z M 694.847656 216.613281 C 694.847656 215.910156 695.421875 215.339844 696.125 215.339844 L 807.347656 215.339844 C 808.050781 215.339844 808.625 215.90625 808.625 216.613281 C 808.625 217.316406 808.050781 217.886719 807.347656 217.886719 L 696.125 217.886719 C 695.421875 217.886719 694.847656 217.316406 694.847656 216.613281 Z M 808.621094 207.316406 C 808.621094 208.019531 808.050781 208.589844 807.347656 208.589844 L 696.125 208.589844 C 695.421875 208.589844 694.847656 208.019531 694.847656 207.316406 C 694.847656 206.613281 695.421875 206.039062 696.125 206.039062 L 807.347656 206.039062 C 808.050781 206.039062 808.621094 206.609375 808.621094 207.316406 Z M 1163.761719 216.292969 C 1164.113281 215.683594 1164.890625 215.472656 1165.5 215.824219 C 1177.808594 222.90625 1186.496094 234.90625 1189.328125 248.753906 C 1189.46875 249.445312 1189.027344 250.117188 1188.335938 250.257812 C 1188.25 250.277344 1188.164062 250.285156 1188.082031 250.285156 C 1187.488281 250.285156 1186.957031 249.867188 1186.832031 249.265625 C 1184.144531 236.132812 1175.90625 224.746094 1164.230469 218.035156 C 1163.621094 217.683594 1163.410156 216.90625 1163.761719 216.292969 Z M 906.132812 235.4375 C 906.132812 232.574219 908.453125 230.253906 911.316406 230.253906 L 1165.683594 230.253906 C 1168.546875 230.253906 1170.867188 232.574219 1170.867188 235.4375 C 1170.867188 238.300781 1168.546875 240.625 1165.683594 240.625 L 911.316406 240.625 C 908.453125 240.625 906.132812 238.300781 906.132812 235.4375 Z M 1202.78125 366.8125 C 1205.644531 366.8125 1207.964844 369.132812 1207.964844 371.996094 C 1207.964844 374.859375 1205.644531 377.179688 1202.78125 377.179688 L 902.324219 377.179688 C 899.460938 377.179688 897.140625 374.859375 897.140625 371.996094 C 897.140625 369.132812 899.460938 366.8125 902.324219 366.8125 Z M 897.136719 416.160156 C 897.136719 413.296875 899.460938 410.976562 902.324219 410.976562 L 1202.78125 410.976562 C 1205.644531 410.976562 1207.964844 413.296875 1207.964844 416.160156 C 1207.964844 419.023438 1205.644531 421.34375 1202.78125 421.34375 L 902.324219 421.34375 C 899.460938 421.34375 897.136719 419.023438 897.136719 416.160156 Z M 1087.542969 490.65625 C 1087.542969 491.359375 1086.972656 491.929688 1086.269531 491.929688 L 954.425781 491.929688 C 953.71875 491.929688 953.148438 491.359375 953.148438 490.65625 C 953.148438 489.953125 953.71875 489.382812 954.425781 489.382812 L 1086.269531 489.382812 C 1086.972656 489.382812 1087.542969 489.953125 1087.542969 490.65625 Z M 1165.945312 429.160156 C 1165.945312 429.863281 1165.375 430.433594 1164.671875 430.433594 L 1107.292969 430.433594 C 1098.027344 430.433594 1090.015625 436.71875 1087.800781 445.714844 L 1078.589844 483.148438 C 1078.449219 483.726562 1077.925781 484.117188 1077.355469 484.117188 C 1077.253906 484.117188 1077.152344 484.105469 1077.046875 484.078125 C 1076.367188 483.914062 1075.949219 483.222656 1076.117188 482.539062 L 1085.328125 445.105469 C 1087.820312 434.964844 1096.851562 427.882812 1107.292969 427.882812 L 1164.671875 427.882812 C 1165.375 427.882812 1165.945312 428.457031 1165.945312 429.160156 Z M 1171.257812 461.09375 C 1170.550781 461.09375 1169.980469 460.523438 1169.980469 459.820312 C 1169.980469 459.113281 1170.550781 458.546875 1171.257812 458.546875 L 1209.550781 458.546875 C 1210.253906 458.546875 1210.824219 459.113281 1210.824219 459.820312 C 1210.824219 460.523438 1210.253906 461.09375 1209.550781 461.09375 Z M 754.855469 393.273438 C 754.855469 381.746094 763.101562 371.964844 774.46875 370.023438 L 832.988281 360.023438 C 833.683594 359.90625 834.339844 360.371094 834.457031 361.066406 C 834.578125 361.757812 834.109375 362.417969 833.417969 362.535156 L 774.894531 372.535156 C 764.757812 374.269531 757.402344 382.992188 757.402344 393.277344 L 757.402344 416.160156 C 757.402344 416.863281 756.832031 417.433594 756.125 417.433594 C 755.421875 417.433594 754.851562 416.863281 754.851562 416.160156 L 754.851562 393.273438 Z M 632.746094 378.589844 C 636.316406 372.121094 641.699219 366.960938 648.3125 363.667969 L 664.222656 355.75 C 664.851562 355.4375 665.617188 355.691406 665.929688 356.320312 C 666.246094 356.953125 665.988281 357.71875 665.359375 358.03125 L 649.449219 365.949219 C 643.300781 369.011719 638.296875 373.808594 634.976562 379.820312 C 634.742188 380.242188 634.308594 380.480469 633.859375 380.480469 C 633.652344 380.480469 633.441406 380.429688 633.246094 380.320312 C 632.628906 379.980469 632.402344 379.203125 632.746094 378.589844 Z M 706.011719 382.988281 C 706.011719 382.285156 706.582031 381.714844 707.285156 381.714844 L 721.738281 381.714844 C 731.855469 381.714844 740.085938 389.945312 740.085938 400.0625 L 740.085938 402.746094 C 740.085938 403.449219 739.515625 404.019531 738.8125 404.019531 C 738.105469 404.019531 737.535156 403.449219 737.535156 402.746094 L 737.535156 400.0625 C 737.535156 391.351562 730.449219 384.261719 721.738281 384.261719 L 707.285156 384.261719 C 706.582031 384.261719 706.011719 383.691406 706.011719 382.988281 Z M 563.664062 400.0625 L 563.664062 402.746094 C 563.664062 403.449219 563.09375 404.019531 562.386719 404.019531 C 561.683594 404.019531 561.113281 403.449219 561.113281 402.746094 L 561.113281 400.0625 C 561.113281 391.578125 566.859375 384.25 575.089844 382.238281 C 575.78125 382.070312 576.464844 382.488281 576.632812 383.171875 C 576.796875 383.855469 576.378906 384.546875 575.695312 384.710938 C 568.613281 386.445312 563.664062 392.753906 563.664062 400.0625 Z M 702.769531 457.015625 C 702.769531 457.71875 702.199219 458.289062 701.492188 458.289062 L 571.734375 458.289062 C 571.03125 458.289062 570.460938 457.71875 570.460938 457.015625 C 570.460938 456.3125 571.03125 455.742188 571.734375 455.742188 L 701.492188 455.742188 C 702.199219 455.738281 702.769531 456.3125 702.769531 457.015625 Z M 702.769531 464.945312 C 702.769531 465.648438 702.199219 466.21875 701.492188 466.21875 L 571.734375 466.21875 C 571.03125 466.21875 570.460938 465.648438 570.460938 464.945312 C 570.460938 464.242188 571.03125 463.671875 571.734375 463.671875 L 701.492188 463.671875 C 702.199219 463.671875 702.769531 464.242188 702.769531 464.945312 Z M 702.769531 464.945312 " fill-opacity="1" fill-rule="nonzero"/></g><g fill="#ff5722" fill-opacity="1"><g transform="translate(145.155351, 147.262682)"><g><path d="M 45.015625 0 L 36.453125 -30.078125 L 27.875 0 L 14.296875 0 L -0.96875 -53.59375 L 12.609375 -53.59375 L 21.765625 -16.828125 L 22.09375 -16.828125 L 31.828125 -53.59375 L 41.0625 -53.59375 L 50.8125 -16.828125 L 51.125 -16.828125 L 60.296875 -53.59375 L 73.796875 -53.59375 L 58.53125 0 Z M 45.015625 0 "/></g></g></g><g fill="#ff5722" fill-opacity="1"><g transform="translate(217.976123, 147.262682)"><g><path d="M 37.609375 -15.078125 L 13.453125 -15.078125 C 13.453125 -12.734375 14.207031 -11 15.71875 -9.875 C 17.238281 -8.75 18.882812 -8.1875 20.65625 -8.1875 C 22.519531 -8.1875 23.992188 -8.4375 25.078125 -8.9375 C 26.160156 -9.4375 27.394531 -10.421875 28.78125 -11.890625 L 37.09375 -7.734375 C 33.632812 -1.929688 27.875 0.96875 19.8125 0.96875 C 14.789062 0.96875 10.484375 -0.75 6.890625 -4.1875 C 3.296875 -7.632812 1.5 -11.78125 1.5 -16.625 C 1.5 -21.476562 3.296875 -25.632812 6.890625 -29.09375 C 10.484375 -32.5625 14.789062 -34.296875 19.8125 -34.296875 C 25.09375 -34.296875 29.390625 -32.769531 32.703125 -29.71875 C 36.023438 -26.664062 37.6875 -22.300781 37.6875 -16.625 C 37.6875 -15.851562 37.660156 -15.335938 37.609375 -15.078125 Z M 13.765625 -21.4375 L 26.4375 -21.4375 C 26.175781 -23.164062 25.492188 -24.492188 24.390625 -25.421875 C 23.285156 -26.359375 21.867188 -26.828125 20.140625 -26.828125 C 18.234375 -26.828125 16.71875 -26.328125 15.59375 -25.328125 C 14.46875 -24.335938 13.859375 -23.039062 13.765625 -21.4375 Z M 13.765625 -21.4375 "/></g></g></g><g fill="#ff5722" fill-opacity="1"><g transform="translate(257.147331, 147.262682)"><g><path d="M 3.890625 0 L 3.890625 -55.875 L 15.390625 -55.875 L 15.390625 0 Z M 3.890625 0 "/></g></g></g><g fill="#ff5722" fill-opacity="1"><g transform="translate(276.440607, 147.262682)"><g><path d="M 21.640625 -24.890625 C 19.472656 -24.890625 17.609375 -24.085938 16.046875 -22.484375 C 14.484375 -20.878906 13.703125 -18.953125 13.703125 -16.703125 C 13.703125 -14.398438 14.484375 -12.445312 16.046875 -10.84375 C 17.609375 -9.25 19.472656 -8.453125 21.640625 -8.453125 C 22.671875 -8.453125 23.648438 -8.578125 24.578125 -8.828125 C 25.515625 -9.085938 26.203125 -9.347656 26.640625 -9.609375 L 27.21875 -10 L 31.125 -2.015625 C 30.820312 -1.796875 30.398438 -1.523438 29.859375 -1.203125 C 29.316406 -0.878906 28.082031 -0.4375 26.15625 0.125 C 24.226562 0.6875 22.160156 0.96875 19.953125 0.96875 C 15.054688 0.96875 10.753906 -0.75 7.046875 -4.1875 C 3.347656 -7.632812 1.5 -11.757812 1.5 -16.5625 C 1.5 -21.414062 3.347656 -25.582031 7.046875 -29.0625 C 10.753906 -32.550781 15.054688 -34.296875 19.953125 -34.296875 C 22.160156 -34.296875 24.191406 -34.035156 26.046875 -33.515625 C 27.910156 -33.003906 29.234375 -32.488281 30.015625 -31.96875 L 31.125 -31.1875 L 27.21875 -23.328125 C 25.789062 -24.367188 23.929688 -24.890625 21.640625 -24.890625 Z M 21.640625 -24.890625 "/></g></g></g><g fill="#ff5722" fill-opacity="1"><g transform="translate(308.336237, 147.262682)"><g><path d="M 7.046875 -3.96875 C 3.347656 -7.257812 1.5 -11.476562 1.5 -16.625 C 1.5 -21.78125 3.425781 -26.015625 7.28125 -29.328125 C 11.132812 -32.640625 15.894531 -34.296875 21.5625 -34.296875 C 27.15625 -34.296875 31.867188 -32.628906 35.703125 -29.296875 C 39.535156 -25.960938 41.453125 -21.738281 41.453125 -16.625 C 41.453125 -11.519531 39.578125 -7.3125 35.828125 -4 C 32.078125 -0.6875 27.320312 0.96875 21.5625 0.96875 C 15.59375 0.96875 10.753906 -0.675781 7.046875 -3.96875 Z M 15.9375 -22.28125 C 14.445312 -20.8125 13.703125 -18.925781 13.703125 -16.625 C 13.703125 -14.332031 14.414062 -12.457031 15.84375 -11 C 17.28125 -9.550781 19.164062 -8.828125 21.5 -8.828125 C 23.757812 -8.828125 25.613281 -9.5625 27.0625 -11.03125 C 28.507812 -12.507812 29.234375 -14.375 29.234375 -16.625 C 29.234375 -18.925781 28.484375 -20.8125 26.984375 -22.28125 C 25.492188 -23.757812 23.664062 -24.5 21.5 -24.5 C 19.289062 -24.5 17.4375 -23.757812 15.9375 -22.28125 Z M 15.9375 -22.28125 "/></g></g></g><g fill="#ff5722" fill-opacity="1"><g transform="translate(351.275152, 147.262682)"><g><path d="M 3.890625 0 L 3.890625 -33.328125 L 15.390625 -33.328125 L 15.390625 -29.828125 L 15.53125 -29.828125 C 18.519531 -32.804688 21.703125 -34.296875 25.078125 -34.296875 C 27.503906 -34.296875 29.773438 -33.796875 31.890625 -32.796875 C 34.015625 -31.804688 35.617188 -30.273438 36.703125 -28.203125 C 40.085938 -32.265625 43.769531 -34.296875 47.75 -34.296875 C 51.300781 -34.296875 54.351562 -33.300781 56.90625 -31.3125 C 59.46875 -29.320312 60.75 -26.203125 60.75 -21.953125 L 60.75 0 L 49.25 0 L 49.25 -18.84375 C 49.25 -20.613281 48.757812 -22.09375 47.78125 -23.28125 C 46.8125 -24.476562 45.351562 -25.078125 43.40625 -25.078125 C 41.707031 -25.078125 40.414062 -24.566406 39.53125 -23.546875 C 38.644531 -22.535156 38.160156 -21.3125 38.078125 -19.875 L 38.078125 0 L 26.578125 0 L 26.578125 -18.84375 C 26.578125 -20.613281 26.085938 -22.09375 25.109375 -23.28125 C 24.140625 -24.476562 22.675781 -25.078125 20.71875 -25.078125 C 18.945312 -25.078125 17.613281 -24.523438 16.71875 -23.421875 C 15.832031 -22.316406 15.390625 -21.003906 15.390625 -19.484375 L 15.390625 0 Z M 3.890625 0 "/></g></g></g><g fill="#ff5722" fill-opacity="1"><g transform="translate(415.261279, 147.262682)"><g><path d="M 37.609375 -15.078125 L 13.453125 -15.078125 C 13.453125 -12.734375 14.207031 -11 15.71875 -9.875 C 17.238281 -8.75 18.882812 -8.1875 20.65625 -8.1875 C 22.519531 -8.1875 23.992188 -8.4375 25.078125 -8.9375 C 26.160156 -9.4375 27.394531 -10.421875 28.78125 -11.890625 L 37.09375 -7.734375 C 33.632812 -1.929688 27.875 0.96875 19.8125 0.96875 C 14.789062 0.96875 10.484375 -0.75 6.890625 -4.1875 C 3.296875 -7.632812 1.5 -11.78125 1.5 -16.625 C 1.5 -21.476562 3.296875 -25.632812 6.890625 -29.09375 C 10.484375 -32.5625 14.789062 -34.296875 19.8125 -34.296875 C 25.09375 -34.296875 29.390625 -32.769531 32.703125 -29.71875 C 36.023438 -26.664062 37.6875 -22.300781 37.6875 -16.625 C 37.6875 -15.851562 37.660156 -15.335938 37.609375 -15.078125 Z M 13.765625 -21.4375 L 26.4375 -21.4375 C 26.175781 -23.164062 25.492188 -24.492188 24.390625 -25.421875 C 23.285156 -26.359375 21.867188 -26.828125 20.140625 -26.828125 C 18.234375 -26.828125 16.71875 -26.328125 15.59375 -25.328125 C 14.46875 -24.335938 13.859375 -23.039062 13.765625 -21.4375 Z M 13.765625 -21.4375 "/></g></g></g><g fill="#ff5722" fill-opacity="1"><g transform="translate(454.432498, 147.262682)"><g/></g></g><g fill="#ff5722" fill-opacity="1"><g transform="translate(472.166717, 147.262682)"><g><path d="M 5.84375 -33.328125 L 5.84375 -45.734375 L 17.34375 -45.734375 L 17.34375 -33.328125 L 24.359375 -33.328125 L 24.359375 -24.5625 L 17.34375 -24.5625 L 17.34375 -13.96875 C 17.34375 -10.894531 18.210938 -9.359375 19.953125 -9.359375 C 20.378906 -9.359375 20.832031 -9.441406 21.3125 -9.609375 C 21.789062 -9.785156 22.160156 -9.960938 22.421875 -10.140625 L 22.796875 -10.390625 L 25.65625 -1.109375 C 23.1875 0.273438 20.375 0.96875 17.21875 0.96875 C 15.050781 0.96875 13.1875 0.59375 11.625 -0.15625 C 10.070312 -0.914062 8.894531 -1.929688 8.09375 -3.203125 C 7.289062 -4.484375 6.710938 -5.828125 6.359375 -7.234375 C 6.015625 -8.648438 5.84375 -10.160156 5.84375 -11.765625 L 5.84375 -24.5625 L 1.046875 -24.5625 L 1.046875 -33.328125 Z M 5.84375 -33.328125 "/></g></g></g><g fill="#ff5722" fill-opacity="1"><g transform="translate(497.826129, 147.262682)"><g><path d="M 7.046875 -3.96875 C 3.347656 -7.257812 1.5 -11.476562 1.5 -16.625 C 1.5 -21.78125 3.425781 -26.015625 7.28125 -29.328125 C 11.132812 -32.640625 15.894531 -34.296875 21.5625 -34.296875 C 27.15625 -34.296875 31.867188 -32.628906 35.703125 -29.296875 C 39.535156 -25.960938 41.453125 -21.738281 41.453125 -16.625 C 41.453125 -11.519531 39.578125 -7.3125 35.828125 -4 C 32.078125 -0.6875 27.320312 0.96875 21.5625 0.96875 C 15.59375 0.96875 10.753906 -0.675781 7.046875 -3.96875 Z M 15.9375 -22.28125 C 14.445312 -20.8125 13.703125 -18.925781 13.703125 -16.625 C 13.703125 -14.332031 14.414062 -12.457031 15.84375 -11 C 17.28125 -9.550781 19.164062 -8.828125 21.5 -8.828125 C 23.757812 -8.828125 25.613281 -9.5625 27.0625 -11.03125 C 28.507812 -12.507812 29.234375 -14.375 29.234375 -16.625 C 29.234375 -18.925781 28.484375 -20.8125 26.984375 -22.28125 C 25.492188 -23.757812 23.664062 -24.5 21.5 -24.5 C 19.289062 -24.5 17.4375 -23.757812 15.9375 -22.28125 Z M 15.9375 -22.28125 "/></g></g></g><g fill="#ff5722" fill-opacity="1"><g transform="translate(540.765055, 147.262682)"><g/></g></g><g fill="#ff5722" fill-opacity="1"><g transform="translate(558.499274, 147.262682)"><g><path d="M 32.421875 -11.046875 C 34.285156 -11.046875 36.09375 -11.328125 37.84375 -11.890625 C 39.59375 -12.453125 40.878906 -12.992188 41.703125 -13.515625 L 42.9375 -14.359375 L 48.140625 -3.96875 C 47.960938 -3.832031 47.722656 -3.65625 47.421875 -3.4375 C 47.117188 -3.226562 46.414062 -2.828125 45.3125 -2.234375 C 44.207031 -1.648438 43.023438 -1.140625 41.765625 -0.703125 C 40.515625 -0.273438 38.867188 0.109375 36.828125 0.453125 C 34.796875 0.796875 32.695312 0.96875 30.53125 0.96875 C 25.550781 0.96875 20.832031 -0.25 16.375 -2.6875 C 11.914062 -5.132812 8.320312 -8.503906 5.59375 -12.796875 C 2.863281 -17.085938 1.5 -21.722656 1.5 -26.703125 C 1.5 -30.472656 2.296875 -34.085938 3.890625 -37.546875 C 5.492188 -41.015625 7.628906 -43.984375 10.296875 -46.453125 C 12.960938 -48.921875 16.070312 -50.890625 19.625 -52.359375 C 23.175781 -53.835938 26.8125 -54.578125 30.53125 -54.578125 C 34 -54.578125 37.191406 -54.164062 40.109375 -53.34375 C 43.035156 -52.519531 45.109375 -51.695312 46.328125 -50.875 L 48.140625 -49.640625 L 42.9375 -39.234375 C 42.632812 -39.492188 42.179688 -39.804688 41.578125 -40.171875 C 40.972656 -40.546875 39.757812 -41.035156 37.9375 -41.640625 C 36.125 -42.242188 34.285156 -42.546875 32.421875 -42.546875 C 29.472656 -42.546875 26.828125 -42.070312 24.484375 -41.125 C 22.148438 -40.175781 20.300781 -38.921875 18.9375 -37.359375 C 17.570312 -35.796875 16.53125 -34.113281 15.8125 -32.3125 C 15.101562 -30.519531 14.75 -28.691406 14.75 -26.828125 C 14.75 -22.753906 16.273438 -19.101562 19.328125 -15.875 C 22.378906 -12.65625 26.742188 -11.046875 32.421875 -11.046875 Z M 32.421875 -11.046875 "/></g></g></g><g fill="#ff5722" fill-opacity="1"><g transform="translate(607.414547, 147.262682)"><g><path d="M 3.890625 0 L 3.890625 -55.875 L 15.390625 -55.875 L 15.390625 0 Z M 3.890625 0 "/></g></g></g><g fill="#ff5722" fill-opacity="1"><g transform="translate(626.707834, 147.262682)"><g><path d="M 6.171875 -4.125 C 3.054688 -7.519531 1.5 -11.6875 1.5 -16.625 C 1.5 -21.5625 3.054688 -25.738281 6.171875 -29.15625 C 9.285156 -32.582031 13.25 -34.296875 18.0625 -34.296875 C 22.476562 -34.296875 26.113281 -32.910156 28.96875 -30.140625 L 28.96875 -33.328125 L 40.46875 -33.328125 L 40.46875 0 L 29.109375 0 L 29.109375 -3.765625 L 28.96875 -3.765625 C 26.113281 -0.609375 22.476562 0.96875 18.0625 0.96875 C 13.25 0.96875 9.285156 -0.726562 6.171875 -4.125 Z M 15.9375 -22.28125 C 14.445312 -20.8125 13.703125 -18.925781 13.703125 -16.625 C 13.703125 -14.332031 14.414062 -12.457031 15.84375 -11 C 17.28125 -9.550781 19.164062 -8.828125 21.5 -8.828125 C 23.757812 -8.828125 25.613281 -9.5625 27.0625 -11.03125 C 28.507812 -12.507812 29.234375 -14.375 29.234375 -16.625 C 29.234375 -18.925781 28.484375 -20.8125 26.984375 -22.28125 C 25.492188 -23.757812 23.664062 -24.5 21.5 -24.5 C 19.289062 -24.5 17.4375 -23.757812 15.9375 -22.28125 Z M 15.9375 -22.28125 "/></g></g></g><g fill="#ff5722" fill-opacity="1"><g transform="translate(671.075888, 147.262682)"><g><path d="M 18.390625 -34.296875 C 20.296875 -34.296875 22.175781 -34.078125 24.03125 -33.640625 C 25.894531 -33.210938 27.285156 -32.785156 28.203125 -32.359375 L 29.5625 -31.703125 L 25.796875 -24.171875 C 23.191406 -25.554688 20.722656 -26.25 18.390625 -26.25 C 17.085938 -26.25 16.164062 -26.109375 15.625 -25.828125 C 15.082031 -25.546875 14.8125 -25.015625 14.8125 -24.234375 C 14.8125 -24.054688 14.832031 -23.878906 14.875 -23.703125 C 14.914062 -23.535156 15 -23.375 15.125 -23.21875 C 15.257812 -23.070312 15.378906 -22.941406 15.484375 -22.828125 C 15.597656 -22.722656 15.785156 -22.601562 16.046875 -22.46875 C 16.304688 -22.34375 16.507812 -22.25 16.65625 -22.1875 C 16.8125 -22.125 17.0625 -22.023438 17.40625 -21.890625 C 17.757812 -21.765625 18.019531 -21.664062 18.1875 -21.59375 C 18.363281 -21.53125 18.65625 -21.429688 19.0625 -21.296875 C 19.476562 -21.171875 19.796875 -21.085938 20.015625 -21.046875 C 21.359375 -20.660156 22.523438 -20.226562 23.515625 -19.75 C 24.515625 -19.269531 25.566406 -18.617188 26.671875 -17.796875 C 27.773438 -16.972656 28.628906 -15.929688 29.234375 -14.671875 C 29.835938 -13.421875 30.140625 -11.992188 30.140625 -10.390625 C 30.140625 -2.816406 24.878906 0.96875 14.359375 0.96875 C 11.972656 0.96875 9.707031 0.601562 7.5625 -0.125 C 5.425781 -0.863281 3.878906 -1.601562 2.921875 -2.34375 L 1.5 -3.515625 L 6.171875 -11.375 C 6.515625 -11.070312 6.96875 -10.710938 7.53125 -10.296875 C 8.09375 -9.890625 9.109375 -9.328125 10.578125 -8.609375 C 12.054688 -7.890625 13.335938 -7.53125 14.421875 -7.53125 C 16.804688 -7.53125 18 -8.332031 18 -9.9375 C 18 -10.675781 17.691406 -11.25 17.078125 -11.65625 C 16.472656 -12.070312 15.445312 -12.539062 14 -13.0625 C 12.550781 -13.582031 11.414062 -14.054688 10.59375 -14.484375 C 8.507812 -15.566406 6.859375 -16.789062 5.640625 -18.15625 C 4.429688 -19.519531 3.828125 -21.328125 3.828125 -23.578125 C 3.828125 -26.960938 5.132812 -29.59375 7.75 -31.46875 C 10.375 -33.351562 13.921875 -34.296875 18.390625 -34.296875 Z M 18.390625 -34.296875 "/></g></g></g><g fill="#ff5722" fill-opacity="1"><g transform="translate(703.0365, 147.262682)"><g><path d="M 18.390625 -34.296875 C 20.296875 -34.296875 22.175781 -34.078125 24.03125 -33.640625 C 25.894531 -33.210938 27.285156 -32.785156 28.203125 -32.359375 L 29.5625 -31.703125 L 25.796875 -24.171875 C 23.191406 -25.554688 20.722656 -26.25 18.390625 -26.25 C 17.085938 -26.25 16.164062 -26.109375 15.625 -25.828125 C 15.082031 -25.546875 14.8125 -25.015625 14.8125 -24.234375 C 14.8125 -24.054688 14.832031 -23.878906 14.875 -23.703125 C 14.914062 -23.535156 15 -23.375 15.125 -23.21875 C 15.257812 -23.070312 15.378906 -22.941406 15.484375 -22.828125 C 15.597656 -22.722656 15.785156 -22.601562 16.046875 -22.46875 C 16.304688 -22.34375 16.507812 -22.25 16.65625 -22.1875 C 16.8125 -22.125 17.0625 -22.023438 17.40625 -21.890625 C 17.757812 -21.765625 18.019531 -21.664062 18.1875 -21.59375 C 18.363281 -21.53125 18.65625 -21.429688 19.0625 -21.296875 C 19.476562 -21.171875 19.796875 -21.085938 20.015625 -21.046875 C 21.359375 -20.660156 22.523438 -20.226562 23.515625 -19.75 C 24.515625 -19.269531 25.566406 -18.617188 26.671875 -17.796875 C 27.773438 -16.972656 28.628906 -15.929688 29.234375 -14.671875 C 29.835938 -13.421875 30.140625 -11.992188 30.140625 -10.390625 C 30.140625 -2.816406 24.878906 0.96875 14.359375 0.96875 C 11.972656 0.96875 9.707031 0.601562 7.5625 -0.125 C 5.425781 -0.863281 3.878906 -1.601562 2.921875 -2.34375 L 1.5 -3.515625 L 6.171875 -11.375 C 6.515625 -11.070312 6.96875 -10.710938 7.53125 -10.296875 C 8.09375 -9.890625 9.109375 -9.328125 10.578125 -8.609375 C 12.054688 -7.890625 13.335938 -7.53125 14.421875 -7.53125 C 16.804688 -7.53125 18 -8.332031 18 -9.9375 C 18 -10.675781 17.691406 -11.25 17.078125 -11.65625 C 16.472656 -12.070312 15.445312 -12.539062 14 -13.0625 C 12.550781 -13.582031 11.414062 -14.054688 10.59375 -14.484375 C 8.507812 -15.566406 6.859375 -16.789062 5.640625 -18.15625 C 4.429688 -19.519531 3.828125 -21.328125 3.828125 -23.578125 C 3.828125 -26.960938 5.132812 -29.59375 7.75 -31.46875 C 10.375 -33.351562 13.921875 -34.296875 18.390625 -34.296875 Z M 18.390625 -34.296875 "/></g></g></g><g fill="#ff5722" fill-opacity="1"><g transform="translate(734.997066, 147.262682)"><g><path d="M 3.890625 -53.59375 L 23.0625 -53.59375 C 28.21875 -53.59375 32.421875 -52.21875 35.671875 -49.46875 C 38.921875 -46.71875 40.546875 -42.789062 40.546875 -37.6875 C 40.546875 -33.738281 39.554688 -30.429688 37.578125 -27.765625 C 35.609375 -25.109375 32.9375 -23.238281 29.5625 -22.15625 L 48.015625 0 L 32.484375 0 L 16.109375 -21.1875 L 16.109375 0 L 3.890625 0 Z M 16.109375 -29.828125 L 17.546875 -29.828125 C 18.671875 -29.828125 19.617188 -29.847656 20.390625 -29.890625 C 21.171875 -29.929688 22.0625 -30.082031 23.0625 -30.34375 C 24.0625 -30.601562 24.863281 -30.96875 25.46875 -31.4375 C 26.070312 -31.914062 26.585938 -32.609375 27.015625 -33.515625 C 27.453125 -34.429688 27.671875 -35.535156 27.671875 -36.828125 C 27.671875 -38.128906 27.453125 -39.234375 27.015625 -40.140625 C 26.585938 -41.054688 26.070312 -41.75 25.46875 -42.21875 C 24.863281 -42.695312 24.0625 -43.066406 23.0625 -43.328125 C 22.0625 -43.585938 21.171875 -43.738281 20.390625 -43.78125 C 19.617188 -43.832031 18.671875 -43.859375 17.546875 -43.859375 L 16.109375 -43.859375 Z M 16.109375 -29.828125 "/></g></g></g><g fill="#ff5722" fill-opacity="1"><g transform="translate(781.508788, 147.262682)"><g><path d="M 5 -51.90625 C 6.34375 -53.25 7.945312 -53.921875 9.8125 -53.921875 C 11.675781 -53.921875 13.273438 -53.25 14.609375 -51.90625 C 15.953125 -50.5625 16.625 -48.957031 16.625 -47.09375 C 16.625 -45.238281 15.953125 -43.640625 14.609375 -42.296875 C 13.273438 -40.953125 11.675781 -40.28125 9.8125 -40.28125 C 7.945312 -40.28125 6.34375 -40.953125 5 -42.296875 C 3.65625 -43.640625 2.984375 -45.238281 2.984375 -47.09375 C 2.984375 -48.957031 3.65625 -50.5625 5 -51.90625 Z M 3.890625 -33.328125 L 3.890625 0 L 15.390625 0 L 15.390625 -33.328125 Z M 3.890625 -33.328125 "/></g></g></g><g fill="#ff5722" fill-opacity="1"><g transform="translate(801.126883, 147.262682)"><g><path d="M 6.171875 -4.125 C 3.054688 -7.519531 1.5 -11.6875 1.5 -16.625 C 1.5 -21.5625 3.054688 -25.738281 6.171875 -29.15625 C 9.285156 -32.582031 13.25 -34.296875 18.0625 -34.296875 C 22.476562 -34.296875 26.113281 -32.910156 28.96875 -30.140625 L 28.96875 -55.875 L 40.46875 -55.875 L 40.46875 0 L 29.109375 0 L 29.109375 -3.765625 L 28.96875 -3.765625 C 26.113281 -0.609375 22.476562 0.96875 18.0625 0.96875 C 13.25 0.96875 9.285156 -0.726562 6.171875 -4.125 Z M 15.9375 -22.28125 C 14.445312 -20.8125 13.703125 -18.925781 13.703125 -16.625 C 13.703125 -14.332031 14.414062 -12.457031 15.84375 -11 C 17.28125 -9.550781 19.164062 -8.828125 21.5 -8.828125 C 23.757812 -8.828125 25.613281 -9.5625 27.0625 -11.03125 C 28.507812 -12.507812 29.234375 -14.375 29.234375 -16.625 C 29.234375 -18.925781 28.484375 -20.8125 26.984375 -22.28125 C 25.492188 -23.757812 23.664062 -24.5 21.5 -24.5 C 19.289062 -24.5 17.4375 -23.757812 15.9375 -22.28125 Z M 15.9375 -22.28125 "/></g></g></g><g fill="#ff5722" fill-opacity="1"><g transform="translate(845.494937, 147.262682)"><g><path d="M 37.609375 -15.078125 L 13.453125 -15.078125 C 13.453125 -12.734375 14.207031 -11 15.71875 -9.875 C 17.238281 -8.75 18.882812 -8.1875 20.65625 -8.1875 C 22.519531 -8.1875 23.992188 -8.4375 25.078125 -8.9375 C 26.160156 -9.4375 27.394531 -10.421875 28.78125 -11.890625 L 37.09375 -7.734375 C 33.632812 -1.929688 27.875 0.96875 19.8125 0.96875 C 14.789062 0.96875 10.484375 -0.75 6.890625 -4.1875 C 3.296875 -7.632812 1.5 -11.78125 1.5 -16.625 C 1.5 -21.476562 3.296875 -25.632812 6.890625 -29.09375 C 10.484375 -32.5625 14.789062 -34.296875 19.8125 -34.296875 C 25.09375 -34.296875 29.390625 -32.769531 32.703125 -29.71875 C 36.023438 -26.664062 37.6875 -22.300781 37.6875 -16.625 C 37.6875 -15.851562 37.660156 -15.335938 37.609375 -15.078125 Z M 13.765625 -21.4375 L 26.4375 -21.4375 C 26.175781 -23.164062 25.492188 -24.492188 24.390625 -25.421875 C 23.285156 -26.359375 21.867188 -26.828125 20.140625 -26.828125 C 18.234375 -26.828125 16.71875 -26.328125 15.59375 -25.328125 C 14.46875 -24.335938 13.859375 -23.039062 13.765625 -21.4375 Z M 13.765625 -21.4375 "/></g></g></g></svg>